<?xml version="1.0" standalone="no"?>
<!DOCTYPE svg PUBLIC "-//W3C//DTD SVG 20010904//EN"
 "http://www.w3.org/TR/2001/REC-SVG-20010904/DTD/svg10.dtd">
<svg version="1.0" xmlns="http://www.w3.org/2000/svg"
 width="700.000000pt" height="700.000000pt" viewBox="0 0 700.000000 700.000000"
 preserveAspectRatio="xMidYMid meet">
<metadata>
Created by potrace 1.14, written by Peter Selinger 2001-2017
</metadata>
<g transform="translate(0.000000,700.000000) scale(0.100000,-0.100000)"
fill="#000000" stroke="none">
<path d="M1908 5483 l-116 -116 -193 -1 -194 -1 1 -169 0 -169 -117 -117 -117
-117 117 -117 117 -117 0 -160 c-1 -89 3 -163 8 -166 4 -3 90 -5 191 -5 l183
0 113 -114 c103 -103 111 -114 86 -114 -15 0 -28 -3 -28 -7 -1 -5 -2 -156 -3
-336 -1 -285 1 -330 14 -336 8 -4 59 -7 113 -6 53 1 97 -1 98 -4 4 -31 3 -204
-1 -211 -3 -5 -55 -11 -115 -12 l-110 -3 0 -110 0 -110 228 -3 227 -2 0 -114
0 -113 -385 0 c-212 0 -386 3 -386 6 -1 3 -2 106 -3 229 l-2 222 57 -57 c31
-32 68 -68 81 -81 l25 -23 77 78 c42 43 76 80 76 83 0 3 -22 28 -50 55 -27 27
-50 53 -50 58 0 5 24 33 54 62 l54 52 -81 81 -82 81 -51 -52 c-29 -29 -65 -64
-81 -79 l-29 -28 1 340 0 340 -111 0 c-81 0 -113 -3 -116 -12 -3 -10 -2 -1559
1 -1578 1 -3 277 -5 614 -5 l612 0 3 343 2 342 -115 0 -116 0 3 113 3 112 110
0 110 0 3 343 2 342 -305 0 -306 0 115 114 115 114 168 0 c93 0 178 1 191 1
22 1 22 2 22 164 l0 164 94 94 c51 52 102 102 113 112 20 17 20 14 19 -712 -1
-641 1 -730 14 -733 8 -2 161 -3 340 -3 l325 1 3 226 2 227 255 3 c140 2 255
1 255 -2 0 -2 -23 -28 -51 -56 l-51 -52 56 -55 c31 -31 56 -58 56 -59 0 -2
-65 -4 -145 -3 -123 0 -145 -2 -146 -15 0 -8 0 -111 -1 -227 l0 -213 -114 0
-114 0 0 -228 0 -228 -227 0 -228 1 0 225 0 225 -114 0 -114 0 -1 -337 c-1
-217 3 -339 9 -341 9 -3 880 -1 897 2 4 0 7 63 7 139 0 75 0 176 0 225 l1 87
340 0 340 0 0 343 0 342 -137 -1 c-76 0 -142 1 -146 3 -4 3 18 30 49 61 l56
56 -51 49 c-28 27 -51 50 -51 53 0 2 63 4 140 4 l140 0 1 95 c2 244 5 225 -36
225 -35 0 -35 0 -35 -45 l0 -45 -119 0 -119 0 2 45 2 45 -37 0 -36 0 2 -45 1
-45 -118 0 -118 0 0 46 0 45 -37 -3 c-38 -3 -38 -3 -36 -45 l2 -43 -114 0
-115 0 0 683 0 684 -112 -1 -113 -1 -1 -901 c0 -495 -4 -905 -7 -910 -3 -6
-54 -10 -114 -9 l-108 1 0 909 0 910 -112 1 c-97 1 -113 -1 -114 -15 0 -9 -1
-137 -1 -284 l-1 -269 -114 114 -113 113 0 171 0 171 -187 -2 -188 -1 -120
118 -121 118 -116 -117z m195 -208 c57 -57 81 -75 103 -76 16 0 74 -1 129 -2
l100 -2 5 -125 5 -126 77 -75 78 -75 -80 -79 -80 -80 0 -122 c0 -68 -3 -123
-7 -124 -5 0 -63 -1 -130 -2 l-123 -2 -78 -78 -77 -77 -78 77 -78 78 -127 0
-127 1 -3 125 -3 125 -78 78 -79 78 79 77 79 76 0 126 0 126 125 -1 125 -1 77
77 c43 43 81 78 85 78 4 0 41 -34 81 -75z m307 -1618 l0 -113 -112 1 -113 0 0
113 -1 112 113 0 113 0 0 -113z m1820 -348 c3 -4 5 -54 4 -111 l-1 -103 -114
-3 -114 -3 0 108 c0 59 4 111 8 114 11 8 211 6 217 -2z m-2490 -105 c0 -9 -91
-104 -100 -104 -5 0 -6 182 -2 202 2 10 102 -87 102 -98z"/>
<path d="M3779 5361 c-3 -39 1 -1124 4 -1128 3 -3 155 -5 339 -5 l333 -1 3
571 2 570 -112 -2 -113 -1 0 -453 c0 -248 -2 -453 -5 -453 -23 -6 -198 -4
-210 2 -13 6 -15 65 -14 446 0 241 -1 443 -3 449 -4 11 -223 17 -224 5z m161
-916 l24 -25 -28 -29 -27 -28 25 -21 c32 -24 32 -31 2 -59 l-23 -22 -52 49
c-28 28 -51 53 -51 57 0 9 92 103 100 103 4 0 17 -11 30 -25z"/>
<path d="M4690 4568 l0 -798 113 0 114 0 -1 798 -1 797 -112 0 -113 1 0 -798z"/>
<path d="M5147 5361 c-2 -3 -3 -567 -3 -1253 l1 -1248 -111 0 c-81 0 -113 3
-116 13 -2 6 -3 157 -2 335 1 287 -1 324 -15 331 -9 4 -59 7 -111 7 l-95 -1
-3 -456 -2 -456 -333 -1 c-182 0 -336 -1 -342 -1 -6 -1 -10 -45 -9 -113 l0
-113 445 -1 c244 0 449 2 455 3 7 3 11 40 10 109 -1 58 3 108 8 111 7 5 141 7
206 4 13 -1 16 -19 15 -111 0 -69 3 -110 10 -111 5 -1 56 -2 113 -3 l102 -1 0
97 c0 54 1 706 1 1448 0 743 -1 1365 -1 1383 l0 34 -110 0 c-61 0 -112 -3
-113 -6z"/>
<path d="M5605 5361 c-3 -2 -5 -669 -5 -1480 l0 -1476 113 0 112 0 0 1480 0
1480 -108 1 c-59 0 -110 -2 -112 -5z"/>
<path d="M3241 3055 l-80 -81 77 -77 c43 -42 80 -77 84 -77 6 0 108 99 141
137 19 21 18 22 -62 101 l-80 79 -80 -82z"/>
<path d="M2035 2190 l-80 -80 80 -80 80 -80 -244 2 -244 3 -1 110 -1 110 -112
1 -113 1 0 -227 0 -228 1040 2 c572 0 1040 -1 1040 -2 0 -2 -34 -38 -75 -79
-41 -42 -75 -78 -75 -82 0 -3 35 -41 77 -83 l77 -78 58 57 57 56 56 -56 57
-57 81 80 81 81 -77 77 c-42 43 -77 80 -77 82 0 4 1437 4 1482 1 5 -1 -28 -37
-73 -81 l-81 -79 83 -81 82 -80 80 80 81 81 -79 79 c-44 44 -75 80 -70 81 6 0
144 0 308 1 l298 0 -2 228 -2 228 -113 0 -114 0 0 -114 0 -114 -683 0 -683 0
1 103 c0 56 -1 107 -3 114 -5 15 -219 15 -224 -1 -2 -6 -3 -57 -3 -114 l1
-102 -455 2 -456 3 -1 105 c-1 58 -2 108 -3 112 0 3 -50 6 -111 6 -93 -1 -110
-3 -111 -17 -1 -9 -1 -60 -1 -113 l0 -98 -261 0 -262 0 80 80 80 80 -81 80
-80 81 -56 -56 -56 -56 -57 55 c-31 31 -57 56 -58 56 -2 0 -38 -36 -82 -80z
m255 -185 l54 -55 -114 0 -115 0 55 55 c30 30 57 54 60 54 3 1 30 -24 60 -54z
m1372 -284 l48 -1 -57 -56 -56 -55 -54 53 -54 53 27 5 c15 3 44 4 63 3 20 -1
57 -2 83 -2z"/>
</g>
</svg>
