<?xml version="1.0" encoding="utf-8"?>
<!-- Generator: Adobe Illustrator 23.1.0, SVG Export Plug-In . SVG Version: 6.00 Build 0)  -->
<svg version="1.1" id="Layer_1" xmlns="http://www.w3.org/2000/svg" xmlns:xlink="http://www.w3.org/1999/xlink" x="0px" y="0px"
	 viewBox="0 0 1064.34 964.08" style="enable-background:new 0 0 1064.34 964.08;" xml:space="preserve">
<style type="text/css">

	.st2{clip-path:url(#SVGID_4_);}
	.st56{filter:url(#Adobe_OpacityMaskFilter);}

</style>
<g>
	<g>
		<g>
			<g>
				<g class="st403">
					<g>
						<defs>
							<rect id="SVGID_735_" x="-4604.68" y="-4779.63" width="7153.11" height="7153.1"/>
						</defs>
						<clipPath id="SVGID_2_">
							<use xlink:href="#SVGID_735_"  style="overflow:visible;"/>
						</clipPath>
					</g>
				</g>
			</g>
		</g>
	</g>
</g>
<g>
	<defs>
		<rect id="SVGID_742_" x="1932.08" y="-1174.71" width="1080" height="1080"/>
	</defs>
	<clipPath id="SVGID_4_">
		<use xlink:href="#SVGID_742_"  style="overflow:visible;"/>
	</clipPath>
	<g class="st2">
		<defs>
			<rect id="SVGID_744_" x="800.09" y="201.22" width="1080" height="1080"/>
		</defs>
		<clipPath id="SVGID_6_">
			<use xlink:href="#SVGID_744_"  style="overflow:visible;"/>
		</clipPath>
		<g style="clip-path:url(#SVGID_6_);">
			<defs>
				<rect id="SVGID_746_" x="780.09" y="1321.22" width="1080" height="1080"/>
			</defs>
			<clipPath id="SVGID_8_">
				<use xlink:href="#SVGID_746_"  style="overflow:visible;"/>
			</clipPath>
			<path style="clip-path:url(#SVGID_8_);fill:#841818;" d="M-340.97,421.67L512.2,876.64l759.02,405.03
				c146.36,80.55,312.58,112.87,476.52,94.16l-114.59,114.59l731.23,394.24c39.69,21.58,78.84,40.29,119.69,57.31l-106.53,106.53
				c163.35-18.13,330.16,13.61,476.52,94.16l481.61,246.77l884.27-297.7l9.64-2.83L3100.7,1502.34
				c-39.17-22.1-78.87-40.26-119.71-57.28l72.63-72.63c-163.94,18.71-330.16-13.61-476.52-94.16L1347.57,618.13l4.2-1.3
				L967.15,420.57c-146.33-80.58-312.56-112.9-476.49-94.19l116.86-116.86l-735.77-394.24c-39.12-21.01-78.84-40.28-119.68-57.31
				l-569.55,569.55C-653.55,308.8-487.33,341.13-340.97,421.67"/>
			<path style="clip-path:url(#SVGID_8_);fill:#841818;" d="M4347.12,3117.25l-1229.53-660.13l4.2-1.3l-384.62-196.27
				c-146.33-80.58-312.56-112.9-476.49-94.19l116.86-116.86l-735.77-394.24c-38.1-20.46-76.78-39.26-116.51-55.95l107.89-107.89
				c-163.93,18.71-330.16-13.61-476.52-94.16L303.46,941.29l-759.02-405.03c-146.36-80.55-312.58-112.87-476.52-94.16l114.59-114.59
				l-731.23-394.24c-39.69-21.58-78.84-40.29-119.69-57.31l-545.15,545.16c163.94-18.71,330.16,13.61,476.52,94.16l1229.53,660.13
				l-4.2,1.3l384.62,196.27c146.33,80.58,312.56,112.9,476.49,94.19l-116.86,116.86l735.77,394.24
				c38.11,20.46,76.78,39.26,116.5,55.96l-97.79,97.79c163.93-18.71,330.16,13.61,476.52,94.16l853.17,454.97l759.02,405.03
				c146.36,80.55,312.58,112.87,476.52,94.16l-114.59,114.59l731.23,394.24c39.69,21.58,78.84,40.29,119.69,57.31l535.07-535.07
				C4659.7,3230.13,4493.48,3197.8,4347.12,3117.25"/>
		</g>
	</g>
</g>
<g>
	<defs>
		<path id="SVGID_748_" d="M1041.14,964.08h23.2l-11.6-11.6L1041.14,964.08z M907.46,964.08h23.65l-11.83-11.83L907.46,964.08z
			 M773.78,964.08h23.66l-11.83-11.83L773.78,964.08z M640.1,964.08h24.11l-12.05-12.05L640.1,964.08z M506.41,964.08h24.86
			l-12.43-12.43L506.41,964.08z M985.9,952.48l-11.6,11.6h33.42l11.6-11.6l-16.71-16.71L985.9,952.48z M852.45,952.26l-11.83,11.83
			h33.42l11.83-11.83l-16.71-16.71L852.45,952.26z M118.48,950.97l-0.23,0.22l-12.88,12.89h33.42l12.88-12.88l-16.71-16.71
			L118.48,950.97z M935.77,935.77l16.71,16.71l16.71-16.71l-16.71-16.71L935.77,935.77z M735.48,935.54l-16.71,16.71l11.83,11.83
			h9.76l11.83-11.83l16.71-16.71l-16.71-16.71L735.48,935.54z M468.94,934.72l-0.23,0.23l-29.14,29.14h33.42l12.43-12.43l0.23-0.23
			l16.48-16.48l-16.71-16.71L468.94,934.72z M68.35,934.26l-16.71,16.71l-13.11,13.11h33.42l13.11-13.11l16.71-16.71l-16.71-16.71
			L68.35,934.26z M-14.89,917.24l0.06-0.06l-0.06-0.06V917.24z M418.81,918l-16.71,16.71l-16.71,16.71l12.66,12.66h8.11l12.66-12.66
			l16.71-16.71L452.23,918l-16.71-16.71L418.81,918z M285.35,917.78l-16.71,16.71l-16.71,16.71l12.88,12.88h7.65l12.88-12.88
			l16.71-16.71l16.71-16.71l-16.71-16.71L285.35,917.78z M151.67,917.78l16.71,16.71l16.71,16.71l12.88,12.88h33.42l-12.88-12.88
			l-16.71-16.71l-16.71-16.71l-16.71-16.71L151.67,917.78z M18.22,917.55L1.51,934.26l-16.39,16.39v13.42H5.11l13.11-13.11
			l16.71-16.71l16.71-16.71l-16.71-16.71L18.22,917.55z M902.35,902.35l-16.71,16.71l16.71,16.71l16.71-16.71l16.71-16.71
			l-16.71-16.71L902.35,902.35z M702.05,902.12l-16.71,16.71l-16.71,16.71l16.71,16.71l16.71-16.71l16.71-16.71l16.71-16.71
			l-16.71-16.71L702.05,902.12z M635.44,901.9l-0.11,0.11l-16.6,16.6l-16.71,16.71l16.71,16.71l16.71-16.71l16.6-16.6l0.11-0.11
			l16.6-16.6l-16.71-16.71L635.44,901.9z M568.6,901.9l16.71,16.71l16.71-16.71l-16.71-16.71L568.6,901.9z M502.14,901.52
			l16.71,16.71l16.71,16.71l16.71,16.71l12.43,12.43h33.42l-12.43-12.43l-16.71-16.71l-16.71-16.71l-16.71-16.71l-16.71-16.71
			L502.14,901.52z M368.68,901.29L351.97,918l-16.6,16.6l-0.11,0.11l-16.6,16.6l12.77,12.77h7.88l12.65-12.66l0.11-0.11l16.6-16.6
			L385.39,918l16.71-16.71l-16.71-16.71L368.68,901.29z M235.22,901.07l-16.71,16.71l16.71,16.71l16.71-16.71l16.71-16.71
			l-16.71-16.71L235.22,901.07z M1052.52,885.87l-16.71,16.71l-16.71,16.71l16.71,16.71l16.71-16.71l12.6-12.6v-33.42
			L1052.52,885.87z M318.55,884.58l16.71,16.71l16.71-16.71l-16.71-16.71L318.55,884.58z M118.25,884.36l-16.71,16.71l16.71,16.71
			l16.71-16.71l16.71-16.71l-16.71-16.71L118.25,884.36z M1002.23,869.31l-16.71,16.71l-16.71,16.71l16.71,16.71l16.71-16.71
			l16.71-16.71l16.71-16.71l-16.71-16.71L1002.23,869.31z M852.45,885.42l-0.23,0.22l-16.48,16.48l16.71,16.71l16.48-16.48
			l0.23-0.23l33.2-33.2l-16.71-16.71L852.45,885.42z M802.31,868.7l16.71,16.71l16.71-16.71l-16.71-16.71L802.31,868.7z
			 M735.48,868.7l16.71,16.71l16.71,16.71l16.71,16.71l16.71,16.71l16.71,16.71l16.71-16.71l-16.71-16.71l-16.71-16.71l-16.71-16.71
			l-16.71-16.71l-16.71-16.71L735.48,868.7z M601.79,868.7l16.71,16.71l16.71-16.71l-16.71-16.71L601.79,868.7z M468.72,868.1
			L452,884.81l16.71,16.71l16.71-16.71l16.71-16.71l-16.71-16.71L468.72,868.1z M952.1,852.6l-16.71,16.71l16.71,16.71l16.71-16.71
			l16.71-16.71l-16.71-16.71L952.1,852.6z M285.13,851.16l-16.71,16.71l16.71,16.71l16.71-16.71l16.71-16.71l-16.71-16.71
			L285.13,851.16z M84.83,850.94l-16.71,16.71l-16.71,16.71l16.71,16.71l16.71-16.71l16.71-16.71l16.71-16.71l-16.71-16.71
			L84.83,850.94z M18.22,850.71l-0.11,0.11l-16.6,16.6l-16.39,16.39v0.64l16.39,16.39l16.71-16.71l16.6-16.6l0.11-0.11l16.6-16.6
			l-16.71-16.71L18.22,850.71z M835.51,835.51l16.71,16.71l16.71-16.71l-16.71-16.71L835.51,835.51z M568.6,835.06l-0.23,0.23
			l-33.19,33.19l16.71,16.71l33.2-33.2l0.23-0.22l16.48-16.48l-16.71-16.71L568.6,835.06z M435.29,834.68l-16.71,16.71l-16.71,16.71
			l16.71,16.71l16.71-16.71L452,851.39l16.71-16.71L452,817.97L435.29,834.68z M1052.14,819.4l-16.71,16.71l16.71,16.71l12.97-12.97
			v-33.42L1052.14,819.4z M518.47,818.35l-16.71,16.71l16.71,16.71l16.71-16.71l16.71-16.71l-16.71-16.71L518.47,818.35z
			 M385.01,818.12l-16.71,16.71l-16.71,16.71l16.71,16.71l16.71-16.71l16.71-16.71l16.71-16.71l-16.71-16.71L385.01,818.12z
			 M235.22,834.23l-0.23,0.23l-16.48,16.48l16.71,16.71l16.49-16.48l0.22-0.23l33.2-33.19l-16.71-16.71L235.22,834.23z
			 M118.25,817.52l16.71,16.71l16.71,16.71l16.71,16.71l16.71,16.71l16.71,16.71l16.71-16.71l-16.71-16.71l-16.71-16.71
			l-16.71-16.71l-16.71-16.71l-16.71-16.71L118.25,817.52z M185.09,817.52l16.71,16.71l16.71-16.71l-16.71-16.71L185.09,817.52z
			 M-14.89,816.97v1.09l16.17,16.17l16.71-16.71L1.28,800.81L-14.89,816.97z M802.09,802.09l-16.6,16.6l-0.11,0.11l-16.6,16.6
			l16.71,16.71l16.6-16.6l0.11-0.11l16.6-16.6l16.71-16.71l-16.71-16.71L802.09,802.09z M735.47,801.86l-16.71,16.71l-16.71,16.71
			l16.71,16.71l16.71-16.71l16.71-16.71l16.71-16.71l-16.71-16.71L735.47,801.86z M601.79,801.86l16.71,16.71l16.71,16.71
			l16.71,16.71l16.71,16.71l16.71,16.71l16.71-16.71l-16.71-16.71l-16.71-16.71l-16.71-16.71l-16.71-16.71l-16.71-16.71
			L601.79,801.86z M468.34,801.64l16.71,16.71l16.71-16.71l-16.71-16.71L468.34,801.64z M334.88,801.41l-16.71,16.71l16.71,16.71
			l16.71-16.71l16.71-16.71l-16.71-16.71L334.88,801.41z M1018.72,785.98l-16.71,16.71L985.3,819.4l16.71,16.71l16.71-16.71
			l16.71-16.71l16.71-16.71l-16.71-16.71L1018.72,785.98z M685.34,785.15l-16.71,16.71l16.71,16.71l16.71-16.71l16.71-16.71
			l-16.71-16.71L685.34,785.15z M218.29,784.32L235,801.03l16.71-16.71L235,767.61L218.29,784.32z M901.97,769.05l16.71,16.71
			l16.71-16.71l-16.71-16.71L901.97,769.05z M835.13,769.05l16.71,16.71l16.71,16.71l16.71,16.71l16.71,16.71l16.71,16.71
			l16.71-16.71l-16.71-16.71l-16.71-16.71l-16.71-16.71l-16.71-16.71l-16.71-16.71L835.13,769.05z M568.37,768.44l-16.71,16.71
			l16.71,16.71l16.71-16.71l16.71-16.71l-16.71-16.71L568.37,768.44z M1051.91,752.79l13.2,13.2v-26.4L1051.91,752.79z
			 M184.87,750.9l-16.6,16.6l-0.11,0.11l-16.6,16.6l16.71,16.71l16.6-16.6l0.11-0.11l16.6-16.6l16.71-16.71l-16.71-16.71
			L184.87,750.9z M118.25,750.68l-16.71,16.71L84.83,784.1l16.71,16.71l16.71-16.71l16.71-16.71l16.71-16.71l-16.71-16.71
			L118.25,750.68z M-14.89,750.13v1.09l16.17,16.17l16.71,16.71l16.71,16.71l16.71,16.71l16.71,16.71l16.71-16.71l-16.71-16.71
			L51.41,784.1L34.7,767.39l-16.71-16.71L1.28,733.97L-14.89,750.13z M534.95,735.02l-16.71,16.71l-16.71,16.71l16.71,16.71
			l16.71-16.71l16.71-16.71l16.71-16.71l-16.71-16.71L534.95,735.02z M468.34,734.8l-0.11,0.11l-16.6,16.6l-16.71,16.71
			l-16.71,16.71l16.71,16.71l16.71-16.71l16.71-16.71l16.6-16.6l0.11-0.11l16.6-16.6l-16.71-16.71L468.34,734.8z M401.5,734.8
			l-16.71,16.71l-16.71,16.71l16.71,16.71l16.71-16.71l16.71-16.71l16.71-16.71l-16.71-16.71L401.5,734.8z M68.12,733.97
			l-16.71,16.71l16.71,16.71l16.71-16.71l16.71-16.71l-16.71-16.71L68.12,733.97z M1018.72,719.14l-0.23,0.23l-33.2,33.2
			l-33.19,33.19l-0.23,0.23l-16.48,16.48l16.71,16.71l16.48-16.48l0.23-0.23l33.19-33.19l33.2-33.2l0.23-0.23l16.49-16.48
			l-16.71-16.71L1018.72,719.14z M818.8,718.54l-0.11,0.11l-16.6,16.6l-16.71,16.71l-16.71,16.71l16.71,16.71l16.71-16.71
			l16.71-16.71l16.6-16.6l0.11-0.11l16.6-16.6l-16.71-16.71L818.8,718.54z M751.96,718.54l-16.71,16.71l-16.71,16.71l16.71,16.71
			l16.71-16.71l16.71-16.71l16.71-16.71l-16.71-16.71L751.96,718.54z M217.91,717.86l16.71,16.71l16.71,16.71l16.71,16.71
			l16.71,16.71l16.71,16.71l16.71-16.71l-16.71-16.71l-16.71-16.71l-16.71-16.71l-16.71-16.71l-16.71-16.71L217.91,717.86z
			 M284.75,717.86l16.71,16.71l16.71-16.71l-16.71-16.71L284.75,717.86z M968.59,702.43l-16.71,16.71l-16.71,16.71l16.71,16.71
			l16.71-16.71l16.71-16.71l16.71-16.71l-16.71-16.71L968.59,702.43z M568.37,701.6l16.71,16.71l16.71,16.71l16.71,16.71
			l16.71,16.71l16.71,16.71l16.71-16.71l-16.71-16.71l-16.71-16.71l-16.71-16.71l-16.71-16.71l-16.71-16.71L568.37,701.6z
			 M635.21,701.6l16.71,16.71l16.71-16.71l-16.71-16.71L635.21,701.6z M434.69,701.6l16.71,16.71l16.71-16.71l-16.71-16.71
			L434.69,701.6z M1051.91,685.95l13.2,13.2v-26.4L1051.91,685.95z M918.46,685.72l-16.71,16.71l-16.6,16.6l-0.11,0.11l-16.6,16.6
			l16.71,16.71l16.6-16.6l0.11-0.11l16.6-16.6l16.71-16.71l16.71-16.71l-16.71-16.71L918.46,685.72z M785.15,685.34l16.71,16.71
			l16.71-16.71l-16.71-16.71L785.15,685.34z M401.5,667.95l-0.23,0.23l-33.2,33.2l-33.19,33.19l-0.23,0.23l-16.48,16.49l16.71,16.71
			l16.48-16.48l0.23-0.23l33.19-33.19l33.2-33.2l0.23-0.23l16.48-16.48l-16.71-16.71L401.5,667.95z M-14.89,684.38l16.17,16.17
			l16.71,16.71l16.71,16.71l16.71-16.71L34.7,700.55l-16.71-16.71L1.28,667.13l-16.17-16.17V684.38z M201.58,667.35l-0.11,0.11
			l-16.6,16.6l-16.71,16.71l-16.71,16.71l16.71,16.71l16.71-16.71l16.71-16.71l16.6-16.6l0.11-0.11l16.6-16.6l-16.71-16.71
			L201.58,667.35z M134.74,667.35l-16.71,16.71l-16.71,16.71l16.71,16.71l16.71-16.71l16.71-16.71l16.71-16.71l-16.71-16.71
			L134.74,667.35z M1018.49,652.53l-16.71,16.71l16.71,16.71l16.71-16.71l16.71-16.71l-16.71-16.71L1018.49,652.53z M751.96,651.7
			l-0.23,0.23l-33.19,33.19l-33.19,33.2l-0.23,0.22l-16.48,16.48l16.71,16.71l16.48-16.48l0.23-0.23l33.2-33.2l33.19-33.19
			l0.22-0.22l16.49-16.48l-16.71-16.71L751.96,651.7z M351.37,651.25l-16.71,16.71l-16.71,16.71l16.71,16.71l16.71-16.71
			l16.71-16.71l16.71-16.71l-16.71-16.71L351.37,651.25z M17.99,650.42l16.71,16.71l16.71-16.71L34.7,633.71L17.99,650.42z
			 M701.83,634.99l-16.71,16.71l-16.71,16.71l16.71,16.71l16.71-16.71l16.71-16.71l16.71-16.71l-16.71-16.71L701.83,634.99z
			 M568.37,634.76l-16.71,16.71l-16.71,16.71l16.71,16.71l16.71-16.71l16.71-16.71l16.71-16.71l-16.71-16.71L568.37,634.76z
			 M434.69,634.76l16.71,16.71l16.71,16.71l16.71,16.71l16.71,16.71l16.71,16.71l16.71-16.71l-16.71-16.71l-16.71-16.71
			l-16.71-16.71l-16.71-16.71l-16.71-16.71L434.69,634.76z M301.24,634.53l-16.71,16.71l-16.6,16.6l-0.11,0.11l-16.6,16.6
			l16.71,16.71l16.6-16.6l0.11-0.11l16.6-16.6l16.71-16.71l16.71-16.71l-16.71-16.71L301.24,634.53z M167.93,634.16l16.71,16.71
			l16.71-16.71l-16.71-16.71L167.93,634.16z M985.07,619.11l-16.71,16.71l-16.71,16.71l16.71,16.71l16.71-16.71l16.71-16.71
			l16.71-16.71l-16.71-16.71L985.07,619.11z M918.46,618.88l-0.11,0.11l-16.6,16.6l-16.71,16.71l16.71,16.71l16.71-16.71l16.6-16.6
			l0.11-0.11l16.6-16.6l-16.71-16.71L918.46,618.88z M851.62,618.88l16.71,16.71l16.71-16.71l-16.71-16.71L851.62,618.88z
			 M785.15,618.5l16.71,16.71l16.71,16.71l16.71,16.71l16.71,16.71l16.71,16.71l16.71-16.71l-16.71-16.71l-16.71-16.71l-16.71-16.71
			l-16.71-16.71l-16.71-16.71L785.15,618.5z M651.7,618.28l-16.71,16.71l-16.6,16.6l-0.11,0.11l-16.6,16.6L618.39,685l16.6-16.6
			l0.11-0.11l16.6-16.6l16.71-16.71l16.71-16.71l-16.71-16.71L651.7,618.28z M518.24,618.05l-16.71,16.71l16.71,16.71l16.71-16.71
			l16.71-16.71l-16.71-16.71L518.24,618.05z M601.57,601.57l16.71,16.71l16.71-16.71l-16.71-16.71L601.57,601.57z M401.27,601.34
			l-16.71,16.71l16.71,16.71l16.71-16.71l16.71-16.71l-16.71-16.71L401.27,601.34z M134.74,600.51l-0.23,0.22l-33.19,33.19
			l-33.19,33.2l-0.23,0.23l-16.48,16.48l16.71,16.71l16.48-16.49l0.23-0.23l33.2-33.19l33.19-33.19l0.23-0.23l16.48-16.48
			l-16.71-16.71L134.74,600.51z M1018.49,585.69l16.71,16.71l16.71,16.71l13.2,13.2v-33.42l-13.2-13.2l-16.71-16.71L1018.49,585.69z
			 M884.81,585.68l16.71,16.71l16.71-16.71l-16.71-16.71L884.81,585.68z M751.73,585.08l-16.71,16.71l16.71,16.71l16.71-16.71
			l16.71-16.71l-16.71-16.71L751.73,585.08z M84.6,583.8L67.9,600.51l-16.71,16.71l16.71,16.71l16.71-16.71l16.71-16.71l16.71-16.71
			l-16.71-16.71L84.6,583.8z M568.15,568.15l-16.71,16.71l16.71,16.71l16.71-16.71l16.71-16.71l-16.71-16.71L568.15,568.15z
			 M367.85,567.92l-16.71,16.71l-16.71,16.71l16.71,16.71l16.71-16.71l16.71-16.71l16.71-16.71l-16.71-16.71L367.85,567.92z
			 M301.24,567.69l-0.11,0.11l-16.6,16.6l-16.71,16.71l16.71,16.71l16.71-16.71l16.6-16.6l0.11-0.11l16.6-16.6l-16.71-16.71
			L301.24,567.69z M234.39,567.69l16.71,16.71l16.71-16.71l-16.71-16.71L234.39,567.69z M167.93,567.32l16.71,16.71l16.71,16.71
			l16.71,16.71l16.71,16.71l16.71,16.71l16.71-16.71l-16.71-16.71l-16.71-16.71l-16.71-16.71l-16.71-16.71l-16.71-16.71
			L167.93,567.32z M34.47,567.09L17.77,583.8l-16.6,16.6l-0.11,0.11l-15.94,15.94v1.31l16.05,16.05l16.6-16.6l0.11-0.11l16.6-16.6
			l16.71-16.71l16.71-16.71l-16.71-16.71L34.47,567.09z M1051.8,552.38l13.31,13.32v-26.63L1051.8,552.38z M851.62,552.04
			l-0.23,0.23l-33.2,33.2l16.71,16.71l33.19-33.19l0.23-0.23l16.48-16.48l-16.71-16.71L851.62,552.04z M718.31,551.66l-16.71,16.71
			l-16.71,16.71l16.71,16.71l16.71-16.71l16.71-16.71l16.71-16.71l-16.71-16.71L718.31,551.66z M-14.89,549.61v1.54l15.94,15.94
			l16.71-16.71L1.06,533.67L-14.89,549.61z M801.48,535.33l-16.71,16.71l16.71,16.71l16.71-16.71l16.71-16.71l-16.71-16.71
			L801.48,535.33z M668.03,535.1l-16.71,16.71l-16.71,16.71l16.71,16.71l16.71-16.71l16.71-16.71l16.71-16.71l-16.71-16.71
			L668.03,535.1z M518.24,551.21l-0.23,0.23l-16.48,16.48l16.71,16.71l16.48-16.48l0.23-0.23l33.2-33.2l-16.71-16.71L518.24,551.21z
			 M401.27,534.5l16.71,16.71l16.71,16.71l16.71,16.71l16.71,16.71l16.71,16.71l16.71-16.71l-16.71-16.71l-16.71-16.71l-16.71-16.71
			l-16.71-16.71l-16.71-16.71L401.27,534.5z M468.11,534.5l16.71,16.71l16.71-16.71l-16.71-16.71L468.11,534.5z M267.59,534.5
			l16.71,16.71l16.71-16.71l-16.71-16.71L267.59,534.5z M134.51,533.9l-16.71,16.71l16.71,16.71l16.71-16.71l16.71-16.71
			l-16.71-16.71L134.51,533.9z M884.81,518.84l16.71,16.71l16.71,16.71l16.71,16.71l16.71,16.71l16.71,16.71l16.71-16.71
			l-16.71-16.71l-16.71-16.71l-16.71-16.71l-16.71-16.71l-16.71-16.71L884.81,518.84z M1018.49,518.85l-16.71,16.71l-16.71,16.71
			l16.71,16.71l16.71-16.71l16.71-16.71l16.71-16.71l-16.71-16.71L1018.49,518.85z M751.36,518.62l16.71,16.71l16.71-16.71
			l-16.71-16.71L751.36,518.62z M617.9,518.39l-16.71,16.71l16.71,16.71l16.71-16.71l16.71-16.71l-16.71-16.71L617.9,518.39z
			 M968.36,502.13l-16.71,16.71l16.71,16.71l16.71-16.71l16.71-16.71l-16.71-16.71L968.36,502.13z M501.3,501.31l16.71,16.71
			l16.71-16.71l-16.71-16.71L501.3,501.31z M234.4,500.85l-0.23,0.23l-33.19,33.2l16.71,16.71l33.2-33.2l0.23-0.23l16.48-16.48
			l-16.71-16.71L234.4,500.85z M101.09,500.48l-16.71,16.71L67.67,533.9l16.71,16.71l16.71-16.71l16.71-16.71l16.71-16.71
			l-16.71-16.71L101.09,500.48z M1051.69,485.65l13.43,13.43v-26.86L1051.69,485.65z M851.39,485.42l-16.71,16.71l16.71,16.71
			l16.71-16.71l16.71-16.71l-16.71-16.71L851.39,485.42z M184.26,484.14l-16.71,16.71l16.71,16.71l16.71-16.71l16.71-16.71
			l-16.71-16.71L184.26,484.14z M50.81,483.92L34.1,500.63l-16.71,16.71l16.71,16.71l16.71-16.71l16.71-16.71l16.71-16.71
			l-16.71-16.71L50.81,483.92z M467.89,467.89l-16.6,16.6l-0.11,0.11l-16.6,16.6l16.71,16.71l16.6-16.6l0.11-0.11l16.6-16.6
			l16.71-16.71l-16.71-16.71L467.89,467.89z M401.27,467.66l-16.71,16.71l-16.71,16.71l16.71,16.71l16.71-16.71l16.71-16.71
			l16.71-16.71l-16.71-16.71L401.27,467.66z M267.59,467.66l16.71,16.71l16.71,16.71l16.71,16.71l16.71,16.71l16.71,16.71
			l16.71-16.71l-16.71-16.71l-16.71-16.71l-16.71-16.71l-16.71-16.71l-16.71-16.71L267.59,467.66z M134.13,467.43l16.71,16.71
			l16.71-16.71l-16.71-16.71L134.13,467.43z M0.68,467.21l-15.56,15.57v2.29l15.56,15.56l16.71-16.71l16.71-16.71L17.39,450.5
			L0.68,467.21z M817.97,452l-16.71,16.71l-16.71,16.71l16.71,16.71l16.71-16.71l16.71-16.71L851.39,452l-16.71-16.71L817.97,452z
			 M751.36,451.78l-0.11,0.11l-16.6,16.6l-16.71,16.71l-16.71,16.71l16.71,16.71l16.71-16.71l16.71-16.71l16.6-16.6l0.11-0.11
			l16.6-16.6l-16.71-16.71L751.36,451.78z M684.51,451.78l-16.71,16.71l-16.71,16.71l16.71,16.71l16.71-16.71l16.71-16.71
			l16.71-16.71l-16.71-16.71L684.51,451.78z M351.14,450.95l-16.71,16.71l16.71,16.71l16.71-16.71l16.71-16.71l-16.71-16.71
			L351.14,450.95z M1034.98,435.52l-16.71,16.71l-16.71,16.71l16.71,16.71l16.71-16.71l16.71-16.71l13.43-13.43v-6.56l-13.43-13.43
			L1034.98,435.52z M500.93,434.84l16.71,16.71l16.71,16.71l16.71,16.71l16.71,16.71l16.71,16.71l16.71-16.71l-16.71-16.71
			l-16.71-16.71l-16.71-16.71l-16.71-16.71l-16.71-16.71L500.93,434.84z M567.77,434.84l16.71,16.71l16.71-16.71l-16.71-16.71
			L567.77,434.84z M234.17,434.24l-16.71,16.71l16.71,16.71l16.71-16.71l16.71-16.71l-16.71-16.71L234.17,434.24z M918.23,418.58
			l16.71,16.71l16.71-16.71l-16.71-16.71L918.23,418.58z M851.39,418.58l16.71,16.71L884.81,452l16.71,16.71l16.71,16.71
			l16.71,16.71l16.71-16.71l-16.71-16.71L918.23,452l-16.71-16.71l-16.71-16.71l-16.71-16.71L851.39,418.58z M717.71,418.58
			l16.71,16.71l16.71-16.71l-16.71-16.71L717.71,418.58z M200.75,400.82l-16.71,16.71l-16.71,16.71l16.71,16.71l16.71-16.71
			l16.71-16.71l16.71-16.71l-16.71-16.71L200.75,400.82z M134.13,400.59l-0.11,0.11l-16.6,16.6l-16.71,16.71L84,450.72l16.71,16.71
			l16.71-16.71l16.71-16.71l16.6-16.6l0.11-0.11l16.6-16.6l-16.71-16.71L134.13,400.59z M67.29,400.59L50.58,417.3l-16.71,16.71
			l16.71,16.71l16.71-16.71L84,417.3l16.71-16.71L84,383.88L67.29,400.59z M684.52,384.94l-0.23,0.23l-33.2,33.19l-33.19,33.19
			l-0.23,0.23l-16.48,16.48l16.71,16.71l16.48-16.48l0.23-0.22l33.19-33.2l33.2-33.19l0.23-0.23l16.48-16.48L701,368.45
			L684.52,384.94z M484.59,384.33l-0.11,0.11l-16.6,16.6l-16.71,16.71l-16.71,16.71l16.71,16.71l16.71-16.71l16.71-16.71l16.6-16.6
			l0.11-0.11l16.6-16.6l-16.71-16.71L484.59,384.33z M417.75,384.33l-16.71,16.71l-16.71,16.71l16.71,16.71l16.71-16.71l16.71-16.71
			l16.71-16.71l-16.71-16.71L417.75,384.33z M1034.98,368.68l-0.23,0.23l-33.19,33.19l-33.2,33.2l-0.22,0.23L951.65,452l16.71,16.71
			l16.49-16.48l0.23-0.23l33.19-33.2l33.19-33.19l0.23-0.23l13.43-13.43v-6.11l-13.65-13.66L1034.98,368.68z M634.38,368.23
			l-16.71,16.71l-16.71,16.71l16.71,16.71l16.71-16.71l16.71-16.71l16.71-16.71l-16.71-16.71L634.38,368.23z M234.17,367.4
			l16.71,16.71l16.71,16.71l16.71,16.71l16.71,16.71l16.71,16.71l16.71-16.71l-16.71-16.71l-16.71-16.71l-16.71-16.71l-16.71-16.71
			l-16.71-16.71L234.17,367.4z M301.01,367.4l16.71,16.71l16.71-16.71l-16.71-16.71L301.01,367.4z M100.49,367.4l16.71,16.71
			l16.71-16.71l-16.71-16.71L100.49,367.4z M984.85,351.97l-16.71,16.71l-16.71,16.71l16.71,16.71l16.71-16.71l16.71-16.71
			l16.71-16.71l-16.71-16.71L984.85,351.97z M851.39,351.74l-16.71,16.71l-16.71,16.71l16.71,16.71l16.71-16.71l16.71-16.71
			l16.71-16.71l-16.71-16.71L851.39,351.74z M717.71,351.74l16.71,16.71l16.71,16.71l16.71,16.71l16.71,16.71l16.71,16.71
			l16.71-16.71l-16.71-16.71l-16.71-16.71l-16.71-16.71l-16.71-16.71l-16.71-16.71L717.71,351.74z M584.25,351.52l-16.71,16.71
			l-16.6,16.6l-0.11,0.11l-16.6,16.6l16.71,16.71l16.6-16.6l0.11-0.11l16.6-16.6l16.71-16.71l16.71-16.71l-16.71-16.71
			L584.25,351.52z M450.95,351.14l16.71,16.71l16.71-16.71l-16.71-16.71L450.95,351.14z M934.72,335.26l-16.71,16.71l-16.6,16.6
			l-0.11,0.11l-16.6,16.6l16.71,16.71l16.6-16.6l0.11-0.11l16.6-16.6l16.71-16.71l16.71-16.71l-16.71-16.71L934.72,335.26z
			 M801.26,335.03l-16.71,16.71l16.71,16.71l16.71-16.71l16.71-16.71l-16.71-16.71L801.26,335.03z M67.29,333.75l-0.23,0.23
			l-33.19,33.2L0.68,400.37l-0.23,0.23l-15.34,15.34v2.29l15.56,15.57l16.48-16.48l0.23-0.23l33.19-33.19l33.19-33.2l0.23-0.23
			l16.49-16.48l-16.71-16.71L67.29,333.75z M884.59,318.55l16.71,16.71l16.71-16.71l-16.71-16.71L884.59,318.55z M684.29,318.32
			l-16.71,16.71l16.71,16.71L701,335.03l16.71-16.71L701,301.61L684.29,318.32z M417.75,317.49l-0.23,0.22l-33.2,33.2l-33.19,33.19
			l-0.23,0.23l-16.48,16.48l16.71,16.71l16.48-16.48l0.23-0.23l33.2-33.2l33.19-33.19l0.23-0.23l16.49-16.48l-16.71-16.71
			L417.75,317.49z M17.16,317.04L0.45,333.75l-15.34,15.34v2.74l15.34,15.34l16.71-16.71l16.71-16.71l16.71-16.71l-16.71-16.71
			L17.16,317.04z M1034.75,302.06l-16.71,16.71l16.71,16.71l16.71-16.71l13.65-13.65v-6.11l-13.65-13.65L1034.75,302.06z
			 M-14.89,315.67l15.34-15.34l-15.34-15.34V315.67z M367.62,300.78l-16.71,16.71L334.2,334.2l16.71,16.71l16.71-16.71l16.71-16.71
			l16.71-16.71l-16.71-16.71L367.62,300.78z M234.17,300.56l-16.71,16.71l-16.71,16.71l16.71,16.71l16.71-16.71l16.71-16.71
			l16.71-16.71l-16.71-16.71L234.17,300.56z M100.49,300.56l16.71,16.71l16.71,16.71l16.71,16.71l16.71,16.71l16.71,16.71
			l16.71-16.71l-16.71-16.71l-16.71-16.71l-16.71-16.71l-16.71-16.71l-16.71-16.71L100.49,300.56z M851.16,285.13l-16.71,16.71
			l16.71,16.71l16.71-16.71l16.71-16.71l-16.71-16.71L851.16,285.13z M650.87,284.9l-16.71,16.71l-16.71,16.71l16.71,16.71
			l16.71-16.71l16.71-16.71l16.71-16.71l-16.71-16.71L650.87,284.9z M584.25,284.68l-0.11,0.11l-16.6,16.6l-16.71,16.71l16.71,16.71
			l16.71-16.71l16.6-16.6l0.11-0.11l16.6-16.6l-16.71-16.71L584.25,284.68z M517.41,284.68l16.71,16.71l16.71-16.71l-16.71-16.71
			L517.41,284.68z M450.95,284.3l16.71,16.71l16.71,16.71l16.71,16.71l16.71,16.71l16.71,16.71l16.71-16.71l-16.71-16.71
			l-16.71-16.71l-16.71-16.71l-16.71-16.71l-16.71-16.71L450.95,284.3z M317.49,284.07l-16.71,16.71l-16.6,16.6l-0.11,0.11
			l-16.6,16.6l16.71,16.71l16.6-16.6l0.11-0.11l16.6-16.6l16.71-16.71l16.71-16.71l-16.71-16.71L317.49,284.07z M184.04,283.85
			l-16.71,16.71l16.71,16.71l16.71-16.71l16.71-16.71l-16.71-16.71L184.04,283.85z M1001.33,268.64l-16.71,16.71l-16.71,16.71
			l16.71,16.71l16.71-16.71l16.71-16.71l16.71-16.71l-16.71-16.71L1001.33,268.64z M267.36,267.36l16.71,16.71l16.71-16.71
			l-16.71-16.71L267.36,267.36z M67.07,267.14l-16.71,16.71l16.71,16.71l16.71-16.71l16.71-16.71l-16.71-16.71L67.07,267.14z
			 M951.05,252.09l-16.71,16.71l-16.71,16.71l16.71,16.71l16.71-16.71l16.71-16.71l16.71-16.71l-16.71-16.71L951.05,252.09z
			 M801.26,268.19l-0.23,0.23l-16.48,16.48l16.71,16.71l16.48-16.48l0.23-0.23l33.2-33.2L834.45,235L801.26,268.19z M684.29,251.48
			L701,268.19l16.71,16.71l16.71,16.71l16.71,16.71l16.71,16.71l16.71-16.71l-16.71-16.71l-16.71-16.71l-16.71-16.71l-16.71-16.71
			L701,234.77L684.29,251.48z M751.13,251.48l16.71,16.71l16.71-16.71l-16.71-16.71L751.13,251.48z M550.61,251.48l16.71,16.71
			l16.71-16.71l-16.71-16.71L550.61,251.48z M417.53,250.88l-16.71,16.71l16.71,16.71l16.71-16.71l16.71-16.71l-16.71-16.71
			L417.53,250.88z M1034.37,235.6l16.71,16.71l14.03-14.03v-5.36l-14.03-14.03L1034.37,235.6z M900.92,235.37l-16.71,16.71
			l16.71,16.71l16.71-16.71l16.71-16.71l-16.71-16.71L900.92,235.37z M-14.89,248.83L0.34,233.6l-15.23-15.23V248.83z
			 M233.94,233.94l-16.71,16.71l16.71,16.71l16.71-16.71l16.71-16.71l-16.71-16.71L233.94,233.94z M33.65,233.72l-16.71,16.71
			L0.23,267.14l16.71,16.71l16.71-16.71l16.71-16.71l16.71-16.71l-16.71-16.71L33.65,233.72z M784.32,218.29L801.03,235l16.71-16.71
			l-16.71-16.71L784.32,218.29z M517.41,217.83l-0.23,0.23l-33.2,33.2l16.71,16.71l33.2-33.2l0.23-0.22l16.48-16.49l-16.71-16.71
			L517.41,217.83z M384.11,217.46l-16.71,16.71l-16.71,16.71l16.71,16.71l16.71-16.71l16.71-16.71l16.71-16.71l-16.71-16.71
			L384.11,217.46z M467.28,201.13l-16.71,16.71l16.71,16.71l16.71-16.71l16.71-16.71l-16.71-16.71L467.28,201.13z M333.83,200.9
			l-16.71,16.71l-16.71,16.71l16.71,16.71l16.71-16.71l16.71-16.71l16.71-16.71l-16.71-16.71L333.83,200.9z M184.04,217.01
			l-0.23,0.23l-16.48,16.49l16.71,16.71l16.48-16.48l0.23-0.22l33.2-33.2l-16.71-16.71L184.04,217.01z M67.07,200.3l16.71,16.71
			l16.71,16.71l16.71,16.71l16.71,16.71l16.71,16.71l16.71-16.71l-16.71-16.71l-16.71-16.71l-16.71-16.71l-16.71-16.71l-16.71-16.71
			L67.07,200.3z M133.91,200.3l16.71,16.71l16.71-16.71l-16.71-16.71L133.91,200.3z M750.9,184.87l-16.6,16.6l-0.11,0.11l-16.6,16.6
			l16.71,16.71l16.6-16.6l0.11-0.11l16.6-16.6l16.71-16.71l-16.71-16.71L750.9,184.87z M684.29,184.64l-16.71,16.71l-16.71,16.71
			l16.71,16.71l16.71-16.71L701,201.35l16.71-16.71L701,167.93L684.29,184.64z M550.61,184.64l16.71,16.71l16.71,16.71l16.71,16.71
			l16.71,16.71l16.71,16.71l16.71-16.71l-16.71-16.71l-16.71-16.71l-16.71-16.71l-16.71-16.71l-16.71-16.71L550.61,184.64z
			 M417.15,184.42l16.71,16.71l16.71-16.71l-16.71-16.71L417.15,184.42z M283.7,184.19l-16.71,16.71l16.71,16.71l16.71-16.71
			l16.71-16.71l-16.71-16.71L283.7,184.19z M1034.37,168.76l-0.11,0.11l-16.6,16.6l-16.71,16.71l-16.71,16.71l16.71,16.71
			l16.71-16.71l16.71-16.71l16.6-16.6l0.11-0.11l14.03-14.03v-5.13l-14.14-14.14L1034.37,168.76z M967.53,168.76l-16.71,16.71
			l-16.71,16.71l16.71,16.71l16.71-16.71l16.71-16.71l16.71-16.71l-16.71-16.71L967.53,168.76z M-14.89,185.18L0.23,200.3
			l16.71,16.71l16.71-16.71l-16.71-16.71L0.23,166.88l-15.11-15.11V185.18z M634.16,167.93l-16.71,16.71l16.71,16.71l16.71-16.71
			l16.71-16.71l-16.71-16.71L634.16,167.93z M167.1,167.1l16.71,16.71l16.71-16.71l-16.71-16.71L167.1,167.1z M783.95,151.82
			l16.71,16.71l16.71,16.71l16.71,16.71l16.71,16.71l16.71,16.71l16.71-16.71l-16.71-16.71l-16.71-16.71l-16.71-16.71l-16.71-16.71
			l-16.71-16.71L783.95,151.82z M850.79,151.82l16.71,16.71l16.71-16.71l-16.71-16.71L850.79,151.82z M517.19,151.22l-16.71,16.71
			l16.71,16.71l16.71-16.71l16.71-16.71l-16.71-16.71L517.19,151.22z M1000.73,135.56l16.71,16.71l16.71-16.71l-16.71-16.71
			L1000.73,135.56z M133.68,133.68l-16.6,16.6l-0.11,0.11l-16.6,16.6l16.71,16.71l16.6-16.6l0.11-0.11l16.6-16.6l16.71-16.71
			l-16.71-16.71L133.68,133.68z M67.06,133.46l-16.71,16.71l-16.71,16.71l16.71,16.71l16.71-16.71l16.71-16.71l16.71-16.71
			l-16.71-16.71L67.06,133.46z M483.77,117.8l-16.71,16.71l-16.71,16.71l16.71,16.71l16.71-16.71l16.71-16.71l16.71-16.71
			l-16.71-16.71L483.77,117.8z M417.15,117.57l-0.11,0.11l-16.6,16.6l-16.71,16.71l-16.71,16.71l16.71,16.71l16.71-16.71
			l16.71-16.71l16.6-16.6l0.11-0.11l16.6-16.6l-16.71-16.71L417.15,117.57z M350.31,117.57l-16.71,16.71l-16.71,16.71l16.71,16.71
			l16.71-16.71l16.71-16.71l16.71-16.71l-16.71-16.71L350.31,117.57z M16.93,116.74L0.23,133.46l16.71,16.71l16.71-16.71
			l16.71-16.71l-16.71-16.71L16.93,116.74z M967.53,101.92l-0.23,0.23l-33.2,33.19l-33.19,33.19l-0.23,0.23l-16.48,16.48
			l16.71,16.71l16.48-16.49l0.23-0.23l33.19-33.19l33.2-33.2l0.23-0.23l16.48-16.48l-16.71-16.71L967.53,101.92z M-14.89,115.15
			l15.11-15.11l-15.11-15.11V115.15z M767.61,101.32l-0.11,0.11l-16.6,16.6l-16.71,16.71l-16.71,16.71l16.71,16.71l16.71-16.71
			l16.71-16.71l16.6-16.6l0.11-0.11l16.6-16.6l-16.71-16.71L767.61,101.32z M700.77,101.32l-16.71,16.71l-16.71,16.71l16.71,16.71
			l16.71-16.71l16.71-16.71l16.71-16.71l-16.71-16.71L700.77,101.32z M166.72,100.64l16.71,16.71l16.71,16.71l16.71,16.71
			l16.71,16.71l16.71,16.71l16.71-16.71l-16.71-16.71l-16.71-16.71l-16.71-16.71l-16.71-16.71l-16.71-16.71L166.72,100.64z
			 M233.57,100.64l16.71,16.71l16.71-16.71l-16.71-16.71L233.57,100.64z M917.4,85.21l-16.71,16.71l-16.71,16.71l16.71,16.71
			l16.71-16.71l16.71-16.71l16.71-16.71L934.11,68.5L917.4,85.21z M584.03,84.38l16.71,16.71l16.71-16.71l-16.71-16.71L584.03,84.38
			z M383.51,84.38l16.71,16.71l16.71-16.71l-16.71-16.71L383.51,84.38z M517.19,84.38l16.71,16.71l16.71,16.71l16.71,16.71
			l16.71,16.71l16.71,16.71l16.71-16.71l-16.71-16.71l-16.71-16.71l-16.71-16.71l-16.71-16.71L533.9,67.67L517.19,84.38z
			 M1000.73,68.72l16.71,16.71l16.71,16.71l16.71,16.71l14.26,14.26V99.69l-14.26-14.26l-16.71-16.71l-16.71-16.71L1000.73,68.72z
			 M867.27,68.5l-16.71,16.71l-16.6,16.6l-0.11,0.11l-16.6,16.6l16.71,16.71l16.6-16.6l0.11-0.11l16.6-16.6l16.71-16.71l16.71-16.71
			l-16.71-16.71L867.27,68.5z M733.97,68.12l16.71,16.71l16.71-16.71l-16.71-16.71L733.97,68.12z M350.31,50.73l-0.23,0.23
			l-33.2,33.2l-33.19,33.19l-0.23,0.23l-16.48,16.48l16.71,16.71l16.48-16.48l0.23-0.23l33.19-33.19l33.2-33.2l0.23-0.23
			l16.48-16.48L366.8,34.25L350.31,50.73z M150.39,50.13l-0.11,0.11l-16.6,16.6l-16.71,16.71l-16.71,16.71l16.71,16.71l16.71-16.71
			l16.71-16.71l16.6-16.6l0.11-0.11l16.6-16.6l-16.71-16.71L150.39,50.13z M83.55,50.13L66.84,66.84L50.13,83.55l16.71,16.71
			l16.71-16.71l16.71-16.71l16.71-16.71l-16.71-16.71L83.55,50.13z M967.31,35.3L950.6,52.01l16.71,16.71l16.71-16.71l16.71-16.71
			l-16.71-16.71L967.31,35.3z M-14.89,48.31L0.23,33.2l-15.11-15.11V48.31z M700.77,34.48l-0.22,0.23L667.35,67.9l-33.2,33.2
			l-0.22,0.23l-16.48,16.48l16.71,16.71l16.48-16.48l0.23-0.23l33.2-33.2l33.19-33.19l0.23-0.23l16.48-16.49l-16.71-16.71
			L700.77,34.48z M300.18,34.02l-16.71,16.71l-16.71,16.71l16.71,16.71l16.71-16.71l16.71-16.71l16.71-16.71l-16.71-16.71
			L300.18,34.02z M650.64,17.77l-16.71,16.71l-16.71,16.71l16.71,16.71l16.71-16.71l16.71-16.71l16.71-16.71L667.35,1.06
			L650.64,17.77z M517.19,17.54l-16.71,16.71l-16.71,16.71l16.71,16.71l16.71-16.71l16.71-16.71l16.71-16.71L533.9,0.83
			L517.19,17.54z M383.51,17.54l16.71,16.71l16.71,16.71l16.71,16.71l16.71,16.71l16.71,16.71l16.71-16.71l-16.71-16.71
			l-16.71-16.71l-16.71-16.71l-16.71-16.71L400.22,0.83L383.51,17.54z M250.05,17.31l-16.71,16.71l-16.6,16.6l-0.11,0.11l-16.6,16.6
			l16.71,16.71l16.6-16.6l0.11-0.11l16.6-16.6l16.71-16.71l16.71-16.71L266.76,0.6L250.05,17.31z M116.74,16.94l16.71,16.71
			l16.71-16.71L133.46,0.23L116.74,16.94z M6.36-6.36L0,0l16.71,16.71L33.42,0l6.36-6.36H6.36z M73.2-6.36L50.13,16.71l-33.2,33.2
			l-0.23,0.23L0.23,66.61l16.71,16.71l16.48-16.48l0.23-0.23l33.19-33.19l33.19-33.19L100.26,0l6.36-6.36H73.2z M160.29-6.36
			l6.59,6.59l16.71,16.71l16.71,16.71l16.71-16.71L200.3,0.23l-6.59-6.59H160.29z M226.37-6.36l6.97,6.96l6.97-6.96H226.37z
			 M292.76-6.36l7.19,7.19l7.19-7.19H292.76z M340.57-6.36l-7.19,7.19l16.71,16.71L366.8,0.83l7.19-7.19H340.57z M426.44-6.36
			l7.19,7.19l7.19-7.19H426.44z M474.25-6.36l-7.19,7.19l-16.71,16.71l16.71,16.71l16.71-16.71l16.71-16.71l-7.19-7.19H474.25z
			 M559.67-6.36l7.42,7.42l7.42-7.42H559.67z M607.93-6.36l-7.42,7.42L583.8,17.76l-16.6,16.6l-0.11,0.11l-16.6,16.6l16.71,16.71
			l16.6-16.6l0.11-0.11l16.6-16.6l16.71-16.71l16.71-16.71l-7.42-7.42H607.93z M692.9-6.36l7.65,7.65l7.64-7.65H692.9z M741.61-6.36
			l-7.64,7.64l16.71,16.71l16.71,16.71l16.71,16.71l16.71,16.71l16.71,16.71l16.71-16.71l-16.71-16.71L800.81,34.7L784.1,17.99
			L767.39,1.28l-7.64-7.64H741.61z M808.45-6.36l-8.02,8.02l16.71,16.71l16.71-16.71l-8.02-8.02H808.45z M875.29-6.36l-8.02,8.02
			l-0.11,0.11l-16.6,16.6l-16.71,16.71l16.71,16.71l16.71-16.71l16.6-16.6l0.11-0.11l16.6-16.6l-8.13-8.13H875.29z M942.13-6.36
			l-8.25,8.25l-16.71,16.71L900.47,35.3l16.71,16.71l16.71-16.71l16.71-16.71l16.71-16.71l-8.25-8.25H942.13z M992.48-6.36
			l8.25,8.25l16.71,16.71l16.71,16.71l16.71,16.71l14.26-14.26v-4.91l-14.26-14.26l-16.71-16.71l-8.25-8.25H992.48z"/>
	</defs>
	<clipPath id="SVGID_10_">
		<use xlink:href="#SVGID_748_"  style="overflow:visible;"/>
	</clipPath>
	<defs>
		<filter id="Adobe_OpacityMaskFilter" filterUnits="userSpaceOnUse" x="-14.89" y="-6.36" width="1080" height="970.44">
			<feColorMatrix  type="matrix" values="1 0 0 0 0  0 1 0 0 0  0 0 1 0 0  0 0 0 1 0"/>
		</filter>
	</defs>
	<mask maskUnits="userSpaceOnUse" x="-14.89" y="-6.36" width="1080" height="970.44" id="SVGID_12_">
		<g class="st56">
			
				<linearGradient id="SVGID_14_" gradientUnits="userSpaceOnUse" x1="6712.2041" y1="-1533.9036" x2="6713.2041" y2="-1533.9036" gradientTransform="matrix(0 1114.3483 1114.3483 0 1709828 -7479882)">
				<stop  offset="0" style="stop-color:#000000"/>
				<stop  offset="0.1228" style="stop-color:#040404"/>
				<stop  offset="0.248" style="stop-color:#101010"/>
				<stop  offset="0.3743" style="stop-color:#252525"/>
				<stop  offset="0.5014" style="stop-color:#414141"/>
				<stop  offset="0.6293" style="stop-color:#666666"/>
				<stop  offset="0.7578" style="stop-color:#949494"/>
				<stop  offset="0.8842" style="stop-color:#C8C8C8"/>
				<stop  offset="1" style="stop-color:#FFFFFF"/>
			</linearGradient>
			<rect x="-14.89" y="-6.36" style="clip-path:url(#SVGID_10_);fill:url(#SVGID_14_);" width="1080" height="970.44"/>
		</g>
	</mask>
	
		<linearGradient id="SVGID_16_" gradientUnits="userSpaceOnUse" x1="6712.2041" y1="-1533.9036" x2="6713.2041" y2="-1533.9036" gradientTransform="matrix(0 1114.3484 1114.3484 0 1709828.125 -7479883)">
		<stop  offset="0" style="stop-color:#FFFFFF"/>
		<stop  offset="0.1679" style="stop-color:#F7FBF9"/>
		<stop  offset="0.339" style="stop-color:#E8F2EF"/>
		<stop  offset="0.5116" style="stop-color:#D0E5E0"/>
		<stop  offset="0.6853" style="stop-color:#B1D5CE"/>
		<stop  offset="0.8582" style="stop-color:#8CC3B8"/>
		<stop  offset="1" style="stop-color:#69B4A5"/>
	</linearGradient>
	
		<rect x="-14.89" y="-6.36" style="clip-path:url(#SVGID_10_);mask:url(#SVGID_12_);fill:url(#SVGID_16_);" width="1080" height="970.44"/>
</g>
<g>
	<defs>
		<rect id="SVGID_775_" x="1932.08" y="-1174.71" width="1080" height="1080"/>
	</defs>
	<clipPath id="SVGID_18_">
		<use xlink:href="#SVGID_775_"  style="overflow:visible;"/>
	</clipPath>
	<g style="opacity:0.2;clip-path:url(#SVGID_18_);">
		<g>
			<defs>
				<rect id="SVGID_784_" x="925.79" y="-3645.92" width="5609.18" height="5609.18"/>
			</defs>
			<clipPath id="SVGID_20_">
				<use xlink:href="#SVGID_784_"  style="overflow:visible;"/>
			</clipPath>
		</g>
	</g>
</g>
</svg>
