<?xml version="1.0" encoding="utf-8"?>
<!-- Generator: Adobe Illustrator 23.1.0, SVG Export Plug-In . SVG Version: 6.00 Build 0)  -->
<svg version="1.1" id="Layer_1" xmlns="http://www.w3.org/2000/svg" xmlns:xlink="http://www.w3.org/1999/xlink" x="0px" y="0px"
	 viewBox="0 0 1064.34 964.08" style="enable-background:new 0 0 1064.34 964.08;" xml:space="preserve">
<style type="text/css">
	.st0{clip-path:url(#SVGID_2_);}
	.st1{clip-path:url(#SVGID_4_);fill:#1B2E70;}
	.st2{clip-path:url(#SVGID_4_);}
	.st3{clip-path:url(#SVGID_6_);fill:#1E225E;}
	.st4{clip-path:url(#SVGID_6_);fill:#FFFFFF;}
	.st5{clip-path:url(#SVGID_8_);}
	.st6{opacity:0.22;clip-path:url(#SVGID_10_);}
	.st7{clip-path:url(#SVGID_12_);}
	.st8{clip-path:url(#SVGID_14_);fill:#000101;}
	.st9{clip-path:url(#SVGID_16_);fill:#841818;}
	.st10{clip-path:url(#SVGID_18_);fill:#841818;}
	.st11{clip-path:url(#SVGID_8_);fill:#FFFFFF;}
	.st12{clip-path:url(#SVGID_20_);fill:#000101;}
	.st13{clip-path:url(#SVGID_22_);}
	.st14{opacity:0.22;clip-path:url(#SVGID_24_);}
	.st15{clip-path:url(#SVGID_26_);}
	.st16{clip-path:url(#SVGID_28_);fill:#000101;}
	.st17{clip-path:url(#SVGID_22_);fill:#FFFFFF;}
	.st18{clip-path:url(#SVGID_30_);}
	.st19{clip-path:url(#SVGID_32_);}
	.st20{clip-path:url(#SVGID_34_);}
	.st21{clip-path:url(#SVGID_36_);}
	.st22{clip-path:url(#SVGID_38_);}
	.st23{clip-path:url(#SVGID_40_);fill:#841818;}
	.st24{clip-path:url(#SVGID_42_);}
	.st25{clip-path:url(#SVGID_44_);fill:#204C21;}
	.st26{clip-path:url(#SVGID_46_);}
	.st27{opacity:0.1;clip-path:url(#SVGID_48_);}
	.st28{clip-path:url(#SVGID_50_);}
	.st29{clip-path:url(#SVGID_52_);fill:#FFFFFF;}
	.st30{clip-path:url(#SVGID_54_);}
	.st31{clip-path:url(#SVGID_56_);fill:#841818;}
	.st32{clip-path:url(#SVGID_58_);}
	.st33{clip-path:url(#SVGID_60_);}
	.st34{clip-path:url(#SVGID_62_);}
	.st35{clip-path:url(#SVGID_64_);}
	.st36{clip-path:url(#SVGID_66_);}
	.st37{clip-path:url(#SVGID_68_);}
	.st38{opacity:0.1;clip-path:url(#SVGID_70_);}
	.st39{clip-path:url(#SVGID_72_);}
	.st40{clip-path:url(#SVGID_74_);fill:#FFFFFF;}
	.st41{clip-path:url(#SVGID_76_);}
	.st42{clip-path:url(#SVGID_78_);}
	.st43{clip-path:url(#SVGID_80_);}
	.st44{clip-path:url(#SVGID_82_);}
	.st45{clip-path:url(#SVGID_84_);fill:#841818;}
	.st46{clip-path:url(#SVGID_86_);}
	.st47{clip-path:url(#SVGID_88_);fill:#841818;}
	.st48{clip-path:url(#SVGID_60_);fill:#BE581A;}
	.st49{clip-path:url(#SVGID_60_);fill:#FAD1BB;}
	.st50{clip-path:url(#SVGID_60_);fill:#007EA1;}
	.st51{clip-path:url(#SVGID_60_);fill:#193276;}
	.st52{clip-path:url(#SVGID_60_);fill:#A6DADC;}
	.st53{clip-path:url(#SVGID_60_);fill:#FFFFFF;}
	.st54{opacity:0.2;clip-path:url(#SVGID_90_);}
	.st55{clip-path:url(#SVGID_92_);}
	.st56{filter:url(#Adobe_OpacityMaskFilter);}
	.st57{clip-path:url(#SVGID_94_);fill:url(#SVGID_96_);}
	.st58{clip-path:url(#SVGID_94_);mask:url(#SVGID_95_);fill:url(#SVGID_97_);}
	.st59{clip-path:url(#SVGID_99_);}
	.st60{filter:url(#Adobe_OpacityMaskFilter_1_);}
	.st61{clip-path:url(#SVGID_101_);fill:url(#SVGID_103_);}
	.st62{clip-path:url(#SVGID_101_);mask:url(#SVGID_102_);fill:url(#SVGID_104_);}
	.st63{clip-path:url(#SVGID_106_);}
	.st64{clip-path:url(#SVGID_108_);}
	.st65{clip-path:url(#SVGID_110_);}
	.st66{clip-path:url(#SVGID_112_);}
	.st67{clip-path:url(#SVGID_114_);}
	.st68{clip-path:url(#SVGID_116_);}
	.st69{clip-path:url(#SVGID_118_);fill:#841818;}
	.st70{clip-path:url(#SVGID_120_);}
	.st71{opacity:0.22;clip-path:url(#SVGID_122_);}
	.st72{clip-path:url(#SVGID_124_);}
	.st73{clip-path:url(#SVGID_126_);fill:#000101;}
	.st74{clip-path:url(#SVGID_108_);fill:#930B5D;}
	.st75{clip-path:url(#SVGID_128_);}
	.st76{clip-path:url(#SVGID_130_);}
	.st77{clip-path:url(#SVGID_132_);fill:#841818;}
	.st78{clip-path:url(#SVGID_136_);fill:#FFFFFF;}
	.st79{clip-path:url(#SVGID_138_);}
	.st80{clip-path:url(#SVGID_140_);fill:#204C21;}
	.st81{clip-path:url(#SVGID_142_);fill:#FFFFFF;}
	.st82{clip-path:url(#SVGID_144_);fill:#000101;}
	.st83{clip-path:url(#SVGID_146_);}
	.st84{opacity:0.1;clip-path:url(#SVGID_148_);}
	.st85{clip-path:url(#SVGID_150_);}
	.st86{clip-path:url(#SVGID_152_);fill:#FFFFFF;}
	.st87{clip-path:url(#SVGID_146_);fill:#FFFFFF;}
	.st88{clip-path:url(#SVGID_154_);}
	.st89{clip-path:url(#SVGID_156_);}
	.st90{clip-path:url(#SVGID_158_);}
	.st91{clip-path:url(#SVGID_160_);}
	.st92{clip-path:url(#SVGID_162_);}
	.st93{clip-path:url(#SVGID_164_);fill:#841818;}
	.st94{clip-path:url(#SVGID_166_);fill:#E64117;}
	.st95{clip-path:url(#SVGID_168_);fill:#204C21;}
	.st96{clip-path:url(#SVGID_170_);}
	.st97{clip-path:url(#SVGID_172_);}
	.st98{clip-path:url(#SVGID_174_);}
	.st99{clip-path:url(#SVGID_176_);fill:#204C21;}
	.st100{clip-path:url(#SVGID_178_);}
	.st101{clip-path:url(#SVGID_180_);fill:#57A02F;}
	.st102{clip-path:url(#SVGID_182_);}
	.st103{clip-path:url(#SVGID_184_);fill:#841818;}
	.st104{clip-path:url(#SVGID_186_);}
	.st105{clip-path:url(#SVGID_188_);}
	.st106{clip-path:url(#SVGID_190_);}
	.st107{clip-path:url(#SVGID_192_);}
	.st108{clip-path:url(#SVGID_194_);}
	.st109{clip-path:url(#SVGID_196_);}
	.st110{clip-path:url(#SVGID_198_);}
	.st111{clip-path:url(#SVGID_200_);fill:#841818;}
	.st112{clip-path:url(#SVGID_202_);}
	.st113{clip-path:url(#SVGID_204_);fill:#204C21;}
	.st114{clip-path:url(#SVGID_206_);}
	.st115{opacity:0.1;clip-path:url(#SVGID_208_);}
	.st116{clip-path:url(#SVGID_210_);}
	.st117{clip-path:url(#SVGID_212_);fill:#FFFFFF;}
	.st118{clip-path:url(#SVGID_214_);}
	.st119{clip-path:url(#SVGID_216_);}
	.st120{clip-path:url(#SVGID_218_);fill:#841818;}
	.st121{clip-path:url(#SVGID_220_);fill:#E64117;}
	.st122{clip-path:url(#SVGID_188_);fill:#57A02F;}
	.st123{clip-path:url(#SVGID_222_);fill:#204C21;}
	.st124{clip-path:url(#SVGID_224_);}
	.st125{clip-path:url(#SVGID_228_);fill:#FFFFFF;}
	.st126{clip-path:url(#SVGID_230_);fill:#000101;}
	.st127{clip-path:url(#SVGID_230_);fill:#FFFFFF;}
	.st128{clip-path:url(#SVGID_232_);}
	.st129{clip-path:url(#SVGID_234_);}
	.st130{clip-path:url(#SVGID_236_);}
	.st131{clip-path:url(#SVGID_238_);fill:#E64117;}
	.st132{clip-path:url(#SVGID_240_);}
	.st133{clip-path:url(#SVGID_242_);fill:#204C21;}
	.st134{clip-path:url(#SVGID_244_);}
	.st135{clip-path:url(#SVGID_246_);fill:#57A02F;}
	.st136{clip-path:url(#SVGID_248_);}
	.st137{clip-path:url(#SVGID_250_);}
	.st138{clip-path:url(#SVGID_252_);fill:#57A02F;}
	.st139{clip-path:url(#SVGID_254_);}
	.st140{clip-path:url(#SVGID_256_);}
	.st141{clip-path:url(#SVGID_258_);}
	.st142{opacity:0.1;clip-path:url(#SVGID_260_);}
	.st143{clip-path:url(#SVGID_262_);}
	.st144{clip-path:url(#SVGID_264_);fill:#FFFFFF;}
	.st145{clip-path:url(#SVGID_266_);}
	.st146{clip-path:url(#SVGID_268_);fill:#204C21;}
	.st147{clip-path:url(#SVGID_270_);}
	.st148{clip-path:url(#SVGID_272_);fill:#841818;}
	.st149{clip-path:url(#SVGID_274_);}
	.st150{clip-path:url(#SVGID_276_);}
	.st151{clip-path:url(#SVGID_278_);}
	.st152{clip-path:url(#SVGID_280_);}
	.st153{clip-path:url(#SVGID_282_);}
	.st154{clip-path:url(#SVGID_284_);}
	.st155{clip-path:url(#SVGID_286_);}
	.st156{clip-path:url(#SVGID_288_);fill:#841818;}
	.st157{clip-path:url(#SVGID_290_);}
	.st158{clip-path:url(#SVGID_292_);fill:#204C21;}
	.st159{clip-path:url(#SVGID_294_);}
	.st160{opacity:0.1;clip-path:url(#SVGID_296_);}
	.st161{clip-path:url(#SVGID_298_);}
	.st162{clip-path:url(#SVGID_300_);fill:#FFFFFF;}
	.st163{clip-path:url(#SVGID_302_);}
	.st164{clip-path:url(#SVGID_304_);}
	.st165{clip-path:url(#SVGID_306_);}
	.st166{clip-path:url(#SVGID_308_);}
	.st167{clip-path:url(#SVGID_310_);fill:#841818;}
	.st168{clip-path:url(#SVGID_312_);fill:#E64117;}
	.st169{clip-path:url(#SVGID_314_);fill:#204C21;}
	.st170{clip-path:url(#SVGID_276_);fill:#E56E12;}
	.st171{clip-path:url(#SVGID_316_);fill:#E64117;}
	.st172{clip-path:url(#SVGID_318_);}
	.st173{clip-path:url(#SVGID_322_);fill:#FFFFFF;}
	.st174{clip-path:url(#SVGID_324_);}
	.st175{clip-path:url(#SVGID_326_);fill:#204C21;}
	.st176{clip-path:url(#SVGID_328_);fill:#FFFFFF;}
	.st177{clip-path:url(#SVGID_330_);fill:#000101;}
	.st178{clip-path:url(#SVGID_330_);fill:#FFFFFF;}
	.st179{clip-path:url(#SVGID_332_);}
	.st180{clip-path:url(#SVGID_334_);fill:#57A02F;}
	.st181{clip-path:url(#SVGID_336_);}
	.st182{clip-path:url(#SVGID_338_);}
	.st183{clip-path:url(#SVGID_340_);}
	.st184{clip-path:url(#SVGID_342_);}
	.st185{clip-path:url(#SVGID_344_);fill:#E64117;}
	.st186{clip-path:url(#SVGID_346_);fill:#57A02F;}
	.st187{clip-path:url(#SVGID_348_);}
	.st188{clip-path:url(#SVGID_350_);}
	.st189{clip-path:url(#SVGID_352_);}
	.st190{opacity:0.1;clip-path:url(#SVGID_354_);}
	.st191{clip-path:url(#SVGID_356_);}
	.st192{clip-path:url(#SVGID_358_);fill:#FFFFFF;}
	.st193{clip-path:url(#SVGID_360_);fill:#204C21;}
	.st194{clip-path:url(#SVGID_362_);}
	.st195{opacity:0.22;clip-path:url(#SVGID_364_);}
	.st196{clip-path:url(#SVGID_366_);}
	.st197{clip-path:url(#SVGID_368_);fill:#000101;}
	.st198{clip-path:url(#SVGID_370_);fill:#204C21;}
	.st199{clip-path:url(#SVGID_372_);}
	.st200{opacity:0.1;clip-path:url(#SVGID_374_);}
	.st201{clip-path:url(#SVGID_376_);}
	.st202{clip-path:url(#SVGID_378_);fill:#FFFFFF;}
	.st203{clip-path:url(#SVGID_380_);}
	.st204{clip-path:url(#SVGID_382_);fill:#841818;}
	.st205{clip-path:url(#SVGID_384_);}
	.st206{clip-path:url(#SVGID_386_);}
	.st207{clip-path:url(#SVGID_388_);}
	.st208{clip-path:url(#SVGID_390_);}
	.st209{clip-path:url(#SVGID_392_);}
	.st210{clip-path:url(#SVGID_394_);}
	.st211{clip-path:url(#SVGID_396_);fill:#204C21;}
	.st212{clip-path:url(#SVGID_398_);}
	.st213{clip-path:url(#SVGID_400_);}
	.st214{clip-path:url(#SVGID_402_);}
	.st215{clip-path:url(#SVGID_404_);}
	.st216{clip-path:url(#SVGID_406_);fill:#841818;}
	.st217{clip-path:url(#SVGID_408_);fill:#E64117;}
	.st218{clip-path:url(#SVGID_410_);fill:#204C21;}
	.st219{clip-path:url(#SVGID_412_);}
	.st220{clip-path:url(#SVGID_414_);}
	.st221{clip-path:url(#SVGID_416_);fill:#E64117;}
	.st222{clip-path:url(#SVGID_418_);}
	.st223{clip-path:url(#SVGID_420_);fill:#204C21;}
	.st224{clip-path:url(#SVGID_422_);}
	.st225{clip-path:url(#SVGID_424_);fill:#57A02F;}
	.st226{clip-path:url(#SVGID_426_);}
	.st227{clip-path:url(#SVGID_428_);fill:#E64117;}
	.st228{clip-path:url(#SVGID_386_);fill:#291B57;}
	.st229{clip-path:url(#SVGID_430_);fill:#57A02F;}
	.st230{clip-path:url(#SVGID_432_);}
	.st231{clip-path:url(#SVGID_436_);fill:#FFFFFF;}
	.st232{clip-path:url(#SVGID_438_);fill:#000101;}
	.st233{clip-path:url(#SVGID_438_);fill:#FFFFFF;}
	.st234{clip-path:url(#SVGID_440_);}
	.st235{clip-path:url(#SVGID_442_);}
	.st236{clip-path:url(#SVGID_444_);}
	.st237{clip-path:url(#SVGID_446_);}
	.st238{opacity:0.1;clip-path:url(#SVGID_448_);}
	.st239{clip-path:url(#SVGID_450_);}
	.st240{clip-path:url(#SVGID_452_);fill:#FFFFFF;}
	.st241{clip-path:url(#SVGID_454_);fill:#204C21;}
	.st242{clip-path:url(#SVGID_456_);}
	.st243{opacity:0.22;clip-path:url(#SVGID_458_);}
	.st244{clip-path:url(#SVGID_460_);}
	.st245{clip-path:url(#SVGID_462_);fill:#000101;}
	.st246{opacity:0.22;clip-path:url(#SVGID_464_);}
	.st247{clip-path:url(#SVGID_466_);}
	.st248{clip-path:url(#SVGID_468_);fill:#000101;}
	.st249{clip-path:url(#SVGID_470_);fill:#204C21;}
	.st250{clip-path:url(#SVGID_472_);}
	.st251{opacity:0.1;clip-path:url(#SVGID_474_);}
	.st252{clip-path:url(#SVGID_476_);}
	.st253{clip-path:url(#SVGID_478_);fill:#FFFFFF;}
	.st254{clip-path:url(#SVGID_480_);}
	.st255{clip-path:url(#SVGID_482_);}
	.st256{clip-path:url(#SVGID_484_);}
	.st257{clip-path:url(#SVGID_486_);}
	.st258{clip-path:url(#SVGID_488_);}
	.st259{clip-path:url(#SVGID_490_);fill:#204C21;}
	.st260{clip-path:url(#SVGID_492_);}
	.st261{clip-path:url(#SVGID_494_);}
	.st262{clip-path:url(#SVGID_496_);fill:#E64117;}
	.st263{clip-path:url(#SVGID_498_);}
	.st264{clip-path:url(#SVGID_500_);fill:#204C21;}
	.st265{clip-path:url(#SVGID_502_);}
	.st266{clip-path:url(#SVGID_504_);fill:#57A02F;}
	.st267{clip-path:url(#SVGID_506_);}
	.st268{clip-path:url(#SVGID_508_);}
	.st269{clip-path:url(#SVGID_510_);}
	.st270{clip-path:url(#SVGID_512_);fill:#E64117;}
	.st271{clip-path:url(#SVGID_514_);fill:#57A02F;}
	.st272{clip-path:url(#SVGID_516_);}
	.st273{opacity:0.1;clip-path:url(#SVGID_518_);}
	.st274{clip-path:url(#SVGID_520_);}
	.st275{clip-path:url(#SVGID_522_);fill:#FFFFFF;}
	.st276{clip-path:url(#SVGID_482_);fill:#57A02F;}
	.st277{clip-path:url(#SVGID_524_);fill:#204C21;}
	.st278{clip-path:url(#SVGID_526_);}
	.st279{opacity:0.22;clip-path:url(#SVGID_528_);}
	.st280{clip-path:url(#SVGID_530_);}
	.st281{clip-path:url(#SVGID_532_);fill:#000101;}
	.st282{opacity:0.22;clip-path:url(#SVGID_534_);}
	.st283{clip-path:url(#SVGID_536_);}
	.st284{clip-path:url(#SVGID_538_);fill:#000101;}
	.st285{clip-path:url(#SVGID_540_);fill:#204C21;}
	.st286{clip-path:url(#SVGID_542_);fill:#FFFFFF;}
	.st287{clip-path:url(#SVGID_544_);}
	.st288{opacity:0.1;clip-path:url(#SVGID_546_);}
	.st289{clip-path:url(#SVGID_548_);}
	.st290{clip-path:url(#SVGID_550_);fill:#FFFFFF;}
	.st291{opacity:0.1;clip-path:url(#SVGID_552_);}
	.st292{clip-path:url(#SVGID_554_);}
	.st293{clip-path:url(#SVGID_556_);fill:#FFFFFF;}
	.st294{clip-path:url(#SVGID_558_);fill:#FFFFFF;}
	.st295{clip-path:url(#SVGID_560_);}
	.st296{opacity:0.13;clip-path:url(#SVGID_562_);}
	.st297{clip-path:url(#SVGID_564_);}
	.st298{clip-path:url(#SVGID_566_);fill:#FFFFFF;}
	.st299{clip-path:url(#SVGID_560_);fill:#FFFFFF;}
	.st300{clip-path:url(#SVGID_568_);}
	.st301{clip-path:url(#SVGID_570_);fill:none;stroke:#A6DADC;stroke-width:5;stroke-miterlimit:10;}
	.st302{clip-path:url(#SVGID_570_);}
	.st303{clip-path:url(#SVGID_572_);}
	.st304{clip-path:url(#SVGID_574_);}
	.st305{clip-path:url(#SVGID_576_);}
	.st306{clip-path:url(#SVGID_578_);}
	.st307{opacity:0.1;clip-path:url(#SVGID_580_);}
	.st308{clip-path:url(#SVGID_582_);}
	.st309{clip-path:url(#SVGID_584_);fill:#FFFFFF;}
	.st310{clip-path:url(#SVGID_570_);fill:#007EA1;}
	.st311{clip-path:url(#SVGID_570_);fill:#BE581A;}
	.st312{clip-path:url(#SVGID_570_);fill:#193276;}
	.st313{clip-path:url(#SVGID_570_);fill:#A6DADC;}
	.st314{clip-path:url(#SVGID_586_);}
	.st315{clip-path:url(#SVGID_588_);}
	.st316{clip-path:url(#SVGID_590_);fill:#841818;}
	.st317{clip-path:url(#SVGID_570_);fill:#1C2B55;}
	.st318{clip-path:url(#SVGID_592_);}
	.st319{clip-path:url(#SVGID_594_);}
	.st320{clip-path:url(#SVGID_596_);}
	.st321{clip-path:url(#SVGID_598_);}
	.st322{clip-path:url(#SVGID_600_);}
	.st323{clip-path:url(#SVGID_602_);}
	.st324{opacity:0.1;clip-path:url(#SVGID_604_);}
	.st325{clip-path:url(#SVGID_606_);}
	.st326{clip-path:url(#SVGID_608_);fill:#FFFFFF;}
	.st327{clip-path:url(#SVGID_610_);}
	.st328{clip-path:url(#SVGID_612_);}
	.st329{clip-path:url(#SVGID_614_);}
	.st330{clip-path:url(#SVGID_616_);}
	.st331{clip-path:url(#SVGID_618_);fill:#841818;}
	.st332{clip-path:url(#SVGID_620_);}
	.st333{clip-path:url(#SVGID_622_);}
	.st334{clip-path:url(#SVGID_624_);}
	.st335{clip-path:url(#SVGID_626_);fill:#204C21;}
	.st336{clip-path:url(#SVGID_628_);}
	.st337{clip-path:url(#SVGID_630_);}
	.st338{clip-path:url(#SVGID_632_);}
	.st339{clip-path:url(#SVGID_634_);fill:#E64117;}
	.st340{clip-path:url(#SVGID_636_);}
	.st341{clip-path:url(#SVGID_638_);}
	.st342{clip-path:url(#SVGID_640_);}
	.st343{opacity:0.22;clip-path:url(#SVGID_642_);}
	.st344{clip-path:url(#SVGID_646_);}
	.st345{clip-path:url(#SVGID_648_);}
	.st346{opacity:0.1;clip-path:url(#SVGID_650_);}
	.st347{clip-path:url(#SVGID_652_);}
	.st348{clip-path:url(#SVGID_654_);fill:#FFFFFF;}
	.st349{clip-path:url(#SVGID_656_);}
	.st350{clip-path:url(#SVGID_658_);fill:#841818;}
	.st351{clip-path:url(#SVGID_594_);fill:#193276;}
	.st352{clip-path:url(#SVGID_594_);fill:#FFFFFF;}
	.st353{clip-path:url(#SVGID_594_);fill:#BE581A;}
	.st354{clip-path:url(#SVGID_594_);fill:#FEFFFF;}
	.st355{clip-path:url(#SVGID_594_);fill:#007EA1;}
	.st356{opacity:0.2;clip-path:url(#SVGID_660_);}
	.st357{clip-path:url(#SVGID_662_);}
	.st358{filter:url(#Adobe_OpacityMaskFilter_2_);}
	.st359{clip-path:url(#SVGID_664_);fill:url(#SVGID_666_);}
	.st360{clip-path:url(#SVGID_664_);mask:url(#SVGID_665_);fill:url(#SVGID_667_);}
	.st361{clip-path:url(#SVGID_669_);}
	.st362{filter:url(#Adobe_OpacityMaskFilter_3_);}
	.st363{clip-path:url(#SVGID_671_);fill:url(#SVGID_673_);}
	.st364{clip-path:url(#SVGID_671_);mask:url(#SVGID_672_);fill:url(#SVGID_674_);}
	.st365{clip-path:url(#SVGID_676_);}
	.st366{clip-path:url(#SVGID_678_);fill:#57A02F;}
	.st367{clip-path:url(#SVGID_678_);}
	.st368{clip-path:url(#SVGID_680_);}
	.st369{clip-path:url(#SVGID_682_);}
	.st370{clip-path:url(#SVGID_684_);}
	.st371{clip-path:url(#SVGID_686_);}
	.st372{clip-path:url(#SVGID_688_);fill:#204C21;}
	.st373{clip-path:url(#SVGID_690_);}
	.st374{clip-path:url(#SVGID_692_);}
	.st375{clip-path:url(#SVGID_694_);}
	.st376{clip-path:url(#SVGID_696_);fill:#E64117;}
	.st377{clip-path:url(#SVGID_698_);}
	.st378{clip-path:url(#SVGID_700_);}
	.st379{clip-path:url(#SVGID_702_);}
	.st380{opacity:0.22;clip-path:url(#SVGID_704_);}
	.st381{opacity:0.22;clip-path:url(#SVGID_708_);}
	.st382{clip-path:url(#SVGID_712_);}
	.st383{opacity:0.1;clip-path:url(#SVGID_714_);}
	.st384{clip-path:url(#SVGID_716_);}
	.st385{clip-path:url(#SVGID_718_);fill:#FFFFFF;}
	.st386{clip-path:url(#SVGID_678_);fill:#FFFFFF;}
	.st387{clip-path:url(#SVGID_678_);fill:#193276;}
	.st388{clip-path:url(#SVGID_678_);fill:#007EA1;}
	.st389{clip-path:url(#SVGID_678_);fill:#BE581A;}
	.st390{clip-path:url(#SVGID_678_);fill:#1C2B55;}
	.st391{opacity:0.2;clip-path:url(#SVGID_720_);}
	.st392{clip-path:url(#SVGID_722_);}
	.st393{filter:url(#Adobe_OpacityMaskFilter_4_);}
	.st394{clip-path:url(#SVGID_724_);fill:url(#SVGID_726_);}
	.st395{clip-path:url(#SVGID_724_);mask:url(#SVGID_725_);fill:url(#SVGID_727_);}
	.st396{clip-path:url(#SVGID_729_);}
	.st397{filter:url(#Adobe_OpacityMaskFilter_5_);}
	.st398{clip-path:url(#SVGID_731_);fill:url(#SVGID_733_);}
	.st399{clip-path:url(#SVGID_731_);mask:url(#SVGID_732_);fill:url(#SVGID_734_);}
	.st400{fill:#007EA1;}
	.st401{fill:#BE581A;}
	.st402{fill:#193276;}
	.st403{opacity:0.2;}
	.st404{clip-path:url(#SVGID_736_);}
	.st405{filter:url(#Adobe_OpacityMaskFilter_6_);}
	.st406{clip-path:url(#SVGID_738_);fill:url(#SVGID_740_);}
	.st407{clip-path:url(#SVGID_738_);mask:url(#SVGID_739_);fill:url(#SVGID_741_);}
	.st408{clip-path:url(#SVGID_743_);}
	.st409{clip-path:url(#SVGID_745_);}
	.st410{clip-path:url(#SVGID_747_);fill:#841818;}
	.st411{filter:url(#Adobe_OpacityMaskFilter_7_);}
	.st412{clip-path:url(#SVGID_749_);fill:url(#SVGID_751_);}
	.st413{clip-path:url(#SVGID_749_);mask:url(#SVGID_750_);fill:url(#SVGID_752_);}
	.st414{fill:#183372;}
	.st415{fill:#097C9E;}
	.st416{fill:#BD5919;}
	.st417{filter:url(#Adobe_OpacityMaskFilter_8_);}
	.st418{clip-path:url(#SVGID_754_);fill:url(#SVGID_756_);}
	.st419{clip-path:url(#SVGID_754_);mask:url(#SVGID_755_);fill:url(#SVGID_757_);}
	.st420{fill:#69B4A5;}
	.st421{fill-rule:evenodd;clip-rule:evenodd;fill:#BE581A;}
	.st422{clip-path:url(#SVGID_759_);fill:#BE581A;}
	.st423{fill:#FFFFFF;}
	.st424{clip-path:url(#SVGID_761_);fill:#BE581A;}
	.st425{clip-path:url(#SVGID_763_);fill:#BE581A;}
	.st426{clip-path:url(#SVGID_765_);fill:#BE581A;}
	.st427{clip-path:url(#SVGID_767_);}
	.st428{clip-path:url(#SVGID_769_);}
	.st429{filter:url(#Adobe_OpacityMaskFilter_9_);}
	.st430{clip-path:url(#SVGID_771_);fill:url(#SVGID_773_);}
	.st431{clip-path:url(#SVGID_771_);mask:url(#SVGID_772_);fill:url(#SVGID_774_);}
	.st432{opacity:0.2;clip-path:url(#SVGID_776_);}
	.st433{clip-path:url(#SVGID_778_);}
	.st434{filter:url(#Adobe_OpacityMaskFilter_10_);}
	.st435{clip-path:url(#SVGID_780_);fill:url(#SVGID_782_);}
	.st436{clip-path:url(#SVGID_780_);mask:url(#SVGID_781_);fill:url(#SVGID_783_);}
	.st437{clip-path:url(#SVGID_785_);}
	.st438{filter:url(#Adobe_OpacityMaskFilter_11_);}
	.st439{clip-path:url(#SVGID_787_);fill:url(#SVGID_789_);}
	.st440{clip-path:url(#SVGID_787_);mask:url(#SVGID_788_);fill:url(#SVGID_790_);}
	.st441{clip-path:url(#SVGID_792_);}
	.st442{clip-path:url(#SVGID_794_);}
	.st443{clip-path:url(#SVGID_796_);}
	.st444{clip-path:url(#SVGID_798_);}
	.st445{clip-path:url(#SVGID_800_);fill:#841818;}
	.st446{opacity:0.2;clip-path:url(#SVGID_796_);}
	.st447{clip-path:url(#SVGID_802_);}
	.st448{filter:url(#Adobe_OpacityMaskFilter_12_);}
	.st449{clip-path:url(#SVGID_804_);fill:url(#SVGID_806_);}
	.st450{clip-path:url(#SVGID_804_);mask:url(#SVGID_805_);fill:url(#SVGID_807_);}
	.st451{clip-path:url(#SVGID_809_);}
	.st452{filter:url(#Adobe_OpacityMaskFilter_13_);}
	.st453{clip-path:url(#SVGID_811_);fill:url(#SVGID_813_);}
	.st454{clip-path:url(#SVGID_811_);mask:url(#SVGID_812_);fill:url(#SVGID_814_);}
	.st455{opacity:0.5;clip-path:url(#SVGID_818_);}
	.st456{clip-path:url(#SVGID_820_);fill:#183372;}
	.st457{clip-path:url(#SVGID_822_);fill:#183372;}
	.st458{clip-path:url(#SVGID_824_);fill:#183372;}
	.st459{clip-path:url(#SVGID_794_);fill:#007EA1;}
	.st460{clip-path:url(#SVGID_794_);fill:#BE581A;}
	.st461{clip-path:url(#SVGID_794_);fill:#193276;}
	.st462{clip-path:url(#SVGID_794_);fill:#183372;}
	.st463{clip-path:url(#SVGID_794_);fill-rule:evenodd;clip-rule:evenodd;fill:#BE581A;}
	.st464{clip-path:url(#SVGID_826_);fill:#BE581A;}
	.st465{clip-path:url(#SVGID_794_);fill:#FFFFFF;}
	.st466{clip-path:url(#SVGID_828_);fill:#BE581A;}
	.st467{clip-path:url(#SVGID_830_);fill:#BE581A;}
	.st468{clip-path:url(#SVGID_832_);fill:#BE581A;}
	.st469{clip-path:url(#SVGID_834_);}
	.st470{clip-path:url(#SVGID_836_);}
	.st471{clip-path:url(#SVGID_838_);}
	.st472{clip-path:url(#SVGID_840_);}
	.st473{clip-path:url(#SVGID_842_);fill:#841818;}
	.st474{opacity:0.2;clip-path:url(#SVGID_838_);}
	.st475{clip-path:url(#SVGID_844_);}
	.st476{filter:url(#Adobe_OpacityMaskFilter_14_);}
	.st477{clip-path:url(#SVGID_846_);fill:url(#SVGID_848_);}
	.st478{clip-path:url(#SVGID_846_);mask:url(#SVGID_847_);fill:url(#SVGID_849_);}
	.st479{clip-path:url(#SVGID_836_);fill:#69B4A5;}
	.st480{clip-path:url(#SVGID_836_);fill-rule:evenodd;clip-rule:evenodd;fill:#BE581A;}
	.st481{clip-path:url(#SVGID_851_);fill:#BE581A;}
	.st482{clip-path:url(#SVGID_836_);fill:#FFFFFF;}
	.st483{clip-path:url(#SVGID_853_);fill:#BE581A;}
	.st484{clip-path:url(#SVGID_855_);fill:#BE581A;}
	.st485{clip-path:url(#SVGID_857_);fill:#BE581A;}
	.st486{opacity:0.2;clip-path:url(#SVGID_857_);}
	.st487{clip-path:url(#SVGID_859_);}
	.st488{filter:url(#Adobe_OpacityMaskFilter_15_);}
	.st489{clip-path:url(#SVGID_861_);fill:url(#SVGID_863_);}
	.st490{clip-path:url(#SVGID_861_);mask:url(#SVGID_862_);fill:url(#SVGID_864_);}
	.st491{clip-path:url(#SVGID_836_);fill:#183372;}
	.st492{clip-path:url(#SVGID_836_);fill:#BE581A;}
	.st493{clip-path:url(#SVGID_866_);fill:#097C9E;}
	.st494{clip-path:url(#SVGID_866_);fill:#BD5919;}
	.st495{clip-path:url(#SVGID_866_);fill:#183372;}
	.st496{filter:url(#Adobe_OpacityMaskFilter_16_);}
	.st497{clip-path:url(#SVGID_868_);fill:url(#SVGID_870_);}
	.st498{clip-path:url(#SVGID_868_);mask:url(#SVGID_869_);fill:url(#SVGID_871_);}
	.st499{clip-path:url(#SVGID_873_);}
	.st500{clip-path:url(#SVGID_877_);}
	.st501{clip-path:url(#SVGID_879_);}
	.st502{filter:url(#Adobe_OpacityMaskFilter_17_);}
	.st503{clip-path:url(#SVGID_881_);fill:url(#SVGID_883_);}
	.st504{clip-path:url(#SVGID_881_);mask:url(#SVGID_882_);fill:url(#SVGID_884_);}
	.st505{clip-path:url(#SVGID_886_);}
	.st506{clip-path:url(#SVGID_879_);fill:#097C9E;}
	.st507{clip-path:url(#SVGID_879_);fill:#BD5919;}
	.st508{clip-path:url(#SVGID_879_);fill:#183372;}
	.st509{filter:url(#Adobe_OpacityMaskFilter_18_);}
	.st510{clip-path:url(#SVGID_890_);fill:url(#SVGID_892_);}
	.st511{clip-path:url(#SVGID_890_);mask:url(#SVGID_891_);fill:url(#SVGID_893_);}
	.st512{clip-path:url(#SVGID_879_);fill:#69B4A5;}
	.st513{clip-path:url(#SVGID_879_);fill-rule:evenodd;clip-rule:evenodd;fill:#BE581A;}
	.st514{clip-path:url(#SVGID_895_);fill:#BE581A;}
	.st515{clip-path:url(#SVGID_879_);fill:#FFFFFF;}
	.st516{clip-path:url(#SVGID_897_);fill:#BE581A;}
	.st517{clip-path:url(#SVGID_899_);fill:#BE581A;}
	.st518{clip-path:url(#SVGID_901_);fill:#BE581A;}
	.st519{clip-path:url(#SVGID_903_);fill:#46494A;}
	.st520{opacity:0.2;clip-path:url(#SVGID_903_);}
	.st521{clip-path:url(#SVGID_905_);}
	.st522{filter:url(#Adobe_OpacityMaskFilter_19_);}
	.st523{clip-path:url(#SVGID_907_);fill:url(#SVGID_909_);}
	.st524{clip-path:url(#SVGID_907_);mask:url(#SVGID_908_);fill:url(#SVGID_910_);}
	.st525{clip-path:url(#SVGID_912_);}
	.st526{filter:url(#Adobe_OpacityMaskFilter_20_);}
	.st527{clip-path:url(#SVGID_914_);fill:url(#SVGID_916_);}
	.st528{clip-path:url(#SVGID_914_);mask:url(#SVGID_915_);fill:url(#SVGID_917_);}
	.st529{clip-path:url(#SVGID_919_);}
	.st530{clip-path:url(#SVGID_921_);}
	.st531{filter:url(#Adobe_OpacityMaskFilter_21_);}
	.st532{clip-path:url(#SVGID_923_);fill:url(#SVGID_925_);}
	.st533{clip-path:url(#SVGID_923_);mask:url(#SVGID_924_);fill:url(#SVGID_926_);}
	.st534{clip-path:url(#SVGID_921_);fill:#BE581A;}
	.st535{clip-path:url(#SVGID_921_);fill-rule:evenodd;clip-rule:evenodd;fill:#BE581A;}
	.st536{clip-path:url(#SVGID_928_);fill:#BE581A;}
	.st537{clip-path:url(#SVGID_921_);fill:#FFFFFF;}
	.st538{clip-path:url(#SVGID_930_);fill:#BE581A;}
	.st539{clip-path:url(#SVGID_932_);fill:#BE581A;}
	.st540{clip-path:url(#SVGID_934_);fill:#BE581A;}
	.st541{clip-path:url(#SVGID_921_);fill:#183372;}
	.st542{clip-path:url(#SVGID_936_);fill:#097C9E;}
	.st543{clip-path:url(#SVGID_936_);fill:#BD5919;}
	.st544{clip-path:url(#SVGID_936_);fill:#183372;}
	.st545{filter:url(#Adobe_OpacityMaskFilter_22_);}
	.st546{clip-path:url(#SVGID_938_);fill:url(#SVGID_940_);}
	.st547{clip-path:url(#SVGID_938_);mask:url(#SVGID_939_);fill:url(#SVGID_941_);}
	.st548{opacity:0.2;clip-path:url(#SVGID_943_);}
	.st549{clip-path:url(#SVGID_945_);}
	.st550{filter:url(#Adobe_OpacityMaskFilter_23_);}
	.st551{clip-path:url(#SVGID_947_);fill:url(#SVGID_949_);}
	.st552{clip-path:url(#SVGID_947_);mask:url(#SVGID_948_);fill:url(#SVGID_950_);}
	.st553{clip-path:url(#SVGID_952_);}
	.st554{filter:url(#Adobe_OpacityMaskFilter_24_);}
	.st555{clip-path:url(#SVGID_954_);fill:url(#SVGID_956_);}
	.st556{clip-path:url(#SVGID_954_);mask:url(#SVGID_955_);fill:url(#SVGID_957_);}
	.st557{clip-path:url(#SVGID_959_);}
	.st558{clip-path:url(#SVGID_961_);fill:#BABCBC;}
	.st559{clip-path:url(#SVGID_961_);fill:#007EA1;}
	.st560{clip-path:url(#SVGID_961_);fill:#BE581A;}
	.st561{clip-path:url(#SVGID_961_);fill:#193276;}
	.st562{clip-path:url(#SVGID_961_);}
	.st563{filter:url(#Adobe_OpacityMaskFilter_25_);}
	.st564{clip-path:url(#SVGID_963_);fill:url(#SVGID_965_);}
	.st565{clip-path:url(#SVGID_963_);mask:url(#SVGID_964_);fill:url(#SVGID_966_);}
	.st566{clip-path:url(#SVGID_968_);}
	.st567{clip-path:url(#SVGID_961_);fill-rule:evenodd;clip-rule:evenodd;fill:#BE581A;}
	.st568{clip-path:url(#SVGID_972_);fill:#BE581A;}
	.st569{clip-path:url(#SVGID_961_);fill:#183372;}
	.st570{clip-path:url(#SVGID_974_);fill:#BE581A;}
	.st571{clip-path:url(#SVGID_976_);fill:#BE581A;}
	.st572{clip-path:url(#SVGID_978_);fill:#BE581A;}
	.st573{clip-path:url(#SVGID_980_);}
	.st574{clip-path:url(#SVGID_982_);}
	.st575{filter:url(#Adobe_OpacityMaskFilter_26_);}
	.st576{clip-path:url(#SVGID_984_);fill:url(#SVGID_986_);}
	.st577{clip-path:url(#SVGID_984_);mask:url(#SVGID_985_);fill:url(#SVGID_987_);}
	.st578{opacity:0.2;clip-path:url(#SVGID_989_);}
	.st579{clip-path:url(#SVGID_991_);}
	.st580{filter:url(#Adobe_OpacityMaskFilter_27_);}
	.st581{clip-path:url(#SVGID_993_);fill:url(#SVGID_995_);}
	.st582{clip-path:url(#SVGID_993_);mask:url(#SVGID_994_);fill:url(#SVGID_996_);}
	.st583{clip-path:url(#SVGID_998_);}
	.st584{filter:url(#Adobe_OpacityMaskFilter_28_);}
	.st585{clip-path:url(#SVGID_1000_);fill:url(#SVGID_1002_);}
	.st586{clip-path:url(#SVGID_1000_);mask:url(#SVGID_1001_);fill:url(#SVGID_1003_);}
</style>
<g>
	<g>
		<g>
			<g>
				<g class="st403">
					<g>
						<defs>
							<rect id="SVGID_735_" x="-4604.68" y="-4779.63" width="7153.11" height="7153.1"/>
						</defs>
						<clipPath id="SVGID_2_">
							<use xlink:href="#SVGID_735_"  style="overflow:visible;"/>
						</clipPath>
					</g>
				</g>
			</g>
		</g>
	</g>
</g>
<g>
	<defs>
		<rect id="SVGID_742_" x="1932.08" y="-1174.71" width="1080" height="1080"/>
	</defs>
	<clipPath id="SVGID_4_">
		<use xlink:href="#SVGID_742_"  style="overflow:visible;"/>
	</clipPath>
	<g class="st2">
		<defs>
			<rect id="SVGID_744_" x="800.09" y="201.22" width="1080" height="1080"/>
		</defs>
		<clipPath id="SVGID_6_">
			<use xlink:href="#SVGID_744_"  style="overflow:visible;"/>
		</clipPath>
		<g style="clip-path:url(#SVGID_6_);">
			<defs>
				<rect id="SVGID_746_" x="780.09" y="1321.22" width="1080" height="1080"/>
			</defs>
			<clipPath id="SVGID_8_">
				<use xlink:href="#SVGID_746_"  style="overflow:visible;"/>
			</clipPath>
			<path style="clip-path:url(#SVGID_8_);fill:#841818;" d="M-340.97,421.67L512.2,876.64l759.02,405.03
				c146.36,80.55,312.58,112.87,476.52,94.16l-114.59,114.59l731.23,394.24c39.69,21.58,78.84,40.29,119.69,57.31l-106.53,106.53
				c163.35-18.13,330.16,13.61,476.52,94.16l481.61,246.77l884.27-297.7l9.64-2.83L3100.7,1502.34
				c-39.17-22.1-78.87-40.26-119.71-57.28l72.63-72.63c-163.94,18.71-330.16-13.61-476.52-94.16L1347.57,618.13l4.2-1.3
				L967.15,420.57c-146.33-80.58-312.56-112.9-476.49-94.19l116.86-116.86l-735.77-394.24c-39.12-21.01-78.84-40.28-119.68-57.31
				l-569.55,569.55C-653.55,308.8-487.33,341.13-340.97,421.67"/>
			<path style="clip-path:url(#SVGID_8_);fill:#841818;" d="M4347.12,3117.25l-1229.53-660.13l4.2-1.3l-384.62-196.27
				c-146.33-80.58-312.56-112.9-476.49-94.19l116.86-116.86l-735.77-394.24c-38.1-20.46-76.78-39.26-116.51-55.95l107.89-107.89
				c-163.93,18.71-330.16-13.61-476.52-94.16L303.46,941.29l-759.02-405.03c-146.36-80.55-312.58-112.87-476.52-94.16l114.59-114.59
				l-731.23-394.24c-39.69-21.58-78.84-40.29-119.69-57.31l-545.15,545.16c163.94-18.71,330.16,13.61,476.52,94.16l1229.53,660.13
				l-4.2,1.3l384.62,196.27c146.33,80.58,312.56,112.9,476.49,94.19l-116.86,116.86l735.77,394.24
				c38.11,20.46,76.78,39.26,116.5,55.96l-97.79,97.79c163.93-18.71,330.16,13.61,476.52,94.16l853.17,454.97l759.02,405.03
				c146.36,80.55,312.58,112.87,476.52,94.16l-114.59,114.59l731.23,394.24c39.69,21.58,78.84,40.29,119.69,57.31l535.07-535.07
				C4659.7,3230.13,4493.48,3197.8,4347.12,3117.25"/>
		</g>
	</g>
</g>
<g>
	<defs>
		<path id="SVGID_748_" d="M1041.14,964.08h23.2l-11.6-11.6L1041.14,964.08z M907.46,964.08h23.65l-11.83-11.83L907.46,964.08z
			 M773.78,964.08h23.66l-11.83-11.83L773.78,964.08z M640.1,964.08h24.11l-12.05-12.05L640.1,964.08z M506.41,964.08h24.86
			l-12.43-12.43L506.41,964.08z M985.9,952.48l-11.6,11.6h33.42l11.6-11.6l-16.71-16.71L985.9,952.48z M852.45,952.26l-11.83,11.83
			h33.42l11.83-11.83l-16.71-16.71L852.45,952.26z M118.48,950.97l-0.23,0.22l-12.88,12.89h33.42l12.88-12.88l-16.71-16.71
			L118.48,950.97z M935.77,935.77l16.71,16.71l16.71-16.71l-16.71-16.71L935.77,935.77z M735.48,935.54l-16.71,16.71l11.83,11.83
			h9.76l11.83-11.83l16.71-16.71l-16.71-16.71L735.48,935.54z M468.94,934.72l-0.23,0.23l-29.14,29.14h33.42l12.43-12.43l0.23-0.23
			l16.48-16.48l-16.71-16.71L468.94,934.72z M68.35,934.26l-16.71,16.71l-13.11,13.11h33.42l13.11-13.11l16.71-16.71l-16.71-16.71
			L68.35,934.26z M-14.89,917.24l0.06-0.06l-0.06-0.06V917.24z M418.81,918l-16.71,16.71l-16.71,16.71l12.66,12.66h8.11l12.66-12.66
			l16.71-16.71L452.23,918l-16.71-16.71L418.81,918z M285.35,917.78l-16.71,16.71l-16.71,16.71l12.88,12.88h7.65l12.88-12.88
			l16.71-16.71l16.71-16.71l-16.71-16.71L285.35,917.78z M151.67,917.78l16.71,16.71l16.71,16.71l12.88,12.88h33.42l-12.88-12.88
			l-16.71-16.71l-16.71-16.71l-16.71-16.71L151.67,917.78z M18.22,917.55L1.51,934.26l-16.39,16.39v13.42H5.11l13.11-13.11
			l16.71-16.71l16.71-16.71l-16.71-16.71L18.22,917.55z M902.35,902.35l-16.71,16.71l16.71,16.71l16.71-16.71l16.71-16.71
			l-16.71-16.71L902.35,902.35z M702.05,902.12l-16.71,16.71l-16.71,16.71l16.71,16.71l16.71-16.71l16.71-16.71l16.71-16.71
			l-16.71-16.71L702.05,902.12z M635.44,901.9l-0.11,0.11l-16.6,16.6l-16.71,16.71l16.71,16.71l16.71-16.71l16.6-16.6l0.11-0.11
			l16.6-16.6l-16.71-16.71L635.44,901.9z M568.6,901.9l16.71,16.71l16.71-16.71l-16.71-16.71L568.6,901.9z M502.14,901.52
			l16.71,16.71l16.71,16.71l16.71,16.71l12.43,12.43h33.42l-12.43-12.43l-16.71-16.71l-16.71-16.71l-16.71-16.71l-16.71-16.71
			L502.14,901.52z M368.68,901.29L351.97,918l-16.6,16.6l-0.11,0.11l-16.6,16.6l12.77,12.77h7.88l12.65-12.66l0.11-0.11l16.6-16.6
			L385.39,918l16.71-16.71l-16.71-16.71L368.68,901.29z M235.22,901.07l-16.71,16.71l16.71,16.71l16.71-16.71l16.71-16.71
			l-16.71-16.71L235.22,901.07z M1052.52,885.87l-16.71,16.71l-16.71,16.71l16.71,16.71l16.71-16.71l12.6-12.6v-33.42
			L1052.52,885.87z M318.55,884.58l16.71,16.71l16.71-16.71l-16.71-16.71L318.55,884.58z M118.25,884.36l-16.71,16.71l16.71,16.71
			l16.71-16.71l16.71-16.71l-16.71-16.71L118.25,884.36z M1002.23,869.31l-16.71,16.71l-16.71,16.71l16.71,16.71l16.71-16.71
			l16.71-16.71l16.71-16.71l-16.71-16.71L1002.23,869.31z M852.45,885.42l-0.23,0.22l-16.48,16.48l16.71,16.71l16.48-16.48
			l0.23-0.23l33.2-33.2l-16.71-16.71L852.45,885.42z M802.31,868.7l16.71,16.71l16.71-16.71l-16.71-16.71L802.31,868.7z
			 M735.48,868.7l16.71,16.71l16.71,16.71l16.71,16.71l16.71,16.71l16.71,16.71l16.71-16.71l-16.71-16.71l-16.71-16.71l-16.71-16.71
			l-16.71-16.71l-16.71-16.71L735.48,868.7z M601.79,868.7l16.71,16.71l16.71-16.71l-16.71-16.71L601.79,868.7z M468.72,868.1
			L452,884.81l16.71,16.71l16.71-16.71l16.71-16.71l-16.71-16.71L468.72,868.1z M952.1,852.6l-16.71,16.71l16.71,16.71l16.71-16.71
			l16.71-16.71l-16.71-16.71L952.1,852.6z M285.13,851.16l-16.71,16.71l16.71,16.71l16.71-16.71l16.71-16.71l-16.71-16.71
			L285.13,851.16z M84.83,850.94l-16.71,16.71l-16.71,16.71l16.71,16.71l16.71-16.71l16.71-16.71l16.71-16.71l-16.71-16.71
			L84.83,850.94z M18.22,850.71l-0.11,0.11l-16.6,16.6l-16.39,16.39v0.64l16.39,16.39l16.71-16.71l16.6-16.6l0.11-0.11l16.6-16.6
			l-16.71-16.71L18.22,850.71z M835.51,835.51l16.71,16.71l16.71-16.71l-16.71-16.71L835.51,835.51z M568.6,835.06l-0.23,0.23
			l-33.19,33.19l16.71,16.71l33.2-33.2l0.23-0.22l16.48-16.48l-16.71-16.71L568.6,835.06z M435.29,834.68l-16.71,16.71l-16.71,16.71
			l16.71,16.71l16.71-16.71L452,851.39l16.71-16.71L452,817.97L435.29,834.68z M1052.14,819.4l-16.71,16.71l16.71,16.71l12.97-12.97
			v-33.42L1052.14,819.4z M518.47,818.35l-16.71,16.71l16.71,16.71l16.71-16.71l16.71-16.71l-16.71-16.71L518.47,818.35z
			 M385.01,818.12l-16.71,16.71l-16.71,16.71l16.71,16.71l16.71-16.71l16.71-16.71l16.71-16.71l-16.71-16.71L385.01,818.12z
			 M235.22,834.23l-0.23,0.23l-16.48,16.48l16.71,16.71l16.49-16.48l0.22-0.23l33.2-33.19l-16.71-16.71L235.22,834.23z
			 M118.25,817.52l16.71,16.71l16.71,16.71l16.71,16.71l16.71,16.71l16.71,16.71l16.71-16.71l-16.71-16.71l-16.71-16.71
			l-16.71-16.71l-16.71-16.71l-16.71-16.71L118.25,817.52z M185.09,817.52l16.71,16.71l16.71-16.71l-16.71-16.71L185.09,817.52z
			 M-14.89,816.97v1.09l16.17,16.17l16.71-16.71L1.28,800.81L-14.89,816.97z M802.09,802.09l-16.6,16.6l-0.11,0.11l-16.6,16.6
			l16.71,16.71l16.6-16.6l0.11-0.11l16.6-16.6l16.71-16.71l-16.71-16.71L802.09,802.09z M735.47,801.86l-16.71,16.71l-16.71,16.71
			l16.71,16.71l16.71-16.71l16.71-16.71l16.71-16.71l-16.71-16.71L735.47,801.86z M601.79,801.86l16.71,16.71l16.71,16.71
			l16.71,16.71l16.71,16.71l16.71,16.71l16.71-16.71l-16.71-16.71l-16.71-16.71l-16.71-16.71l-16.71-16.71l-16.71-16.71
			L601.79,801.86z M468.34,801.64l16.71,16.71l16.71-16.71l-16.71-16.71L468.34,801.64z M334.88,801.41l-16.71,16.71l16.71,16.71
			l16.71-16.71l16.71-16.71l-16.71-16.71L334.88,801.41z M1018.72,785.98l-16.71,16.71L985.3,819.4l16.71,16.71l16.71-16.71
			l16.71-16.71l16.71-16.71l-16.71-16.71L1018.72,785.98z M685.34,785.15l-16.71,16.71l16.71,16.71l16.71-16.71l16.71-16.71
			l-16.71-16.71L685.34,785.15z M218.29,784.32L235,801.03l16.71-16.71L235,767.61L218.29,784.32z M901.97,769.05l16.71,16.71
			l16.71-16.71l-16.71-16.71L901.97,769.05z M835.13,769.05l16.71,16.71l16.71,16.71l16.71,16.71l16.71,16.71l16.71,16.71
			l16.71-16.71l-16.71-16.71l-16.71-16.71l-16.71-16.71l-16.71-16.71l-16.71-16.71L835.13,769.05z M568.37,768.44l-16.71,16.71
			l16.71,16.71l16.71-16.71l16.71-16.71l-16.71-16.71L568.37,768.44z M1051.91,752.79l13.2,13.2v-26.4L1051.91,752.79z
			 M184.87,750.9l-16.6,16.6l-0.11,0.11l-16.6,16.6l16.71,16.71l16.6-16.6l0.11-0.11l16.6-16.6l16.71-16.71l-16.71-16.71
			L184.87,750.9z M118.25,750.68l-16.71,16.71L84.83,784.1l16.71,16.71l16.71-16.71l16.71-16.71l16.71-16.71l-16.71-16.71
			L118.25,750.68z M-14.89,750.13v1.09l16.17,16.17l16.71,16.71l16.71,16.71l16.71,16.71l16.71,16.71l16.71-16.71l-16.71-16.71
			L51.41,784.1L34.7,767.39l-16.71-16.71L1.28,733.97L-14.89,750.13z M534.95,735.02l-16.71,16.71l-16.71,16.71l16.71,16.71
			l16.71-16.71l16.71-16.71l16.71-16.71l-16.71-16.71L534.95,735.02z M468.34,734.8l-0.11,0.11l-16.6,16.6l-16.71,16.71
			l-16.71,16.71l16.71,16.71l16.71-16.71l16.71-16.71l16.6-16.6l0.11-0.11l16.6-16.6l-16.71-16.71L468.34,734.8z M401.5,734.8
			l-16.71,16.71l-16.71,16.71l16.71,16.71l16.71-16.71l16.71-16.71l16.71-16.71l-16.71-16.71L401.5,734.8z M68.12,733.97
			l-16.71,16.71l16.71,16.71l16.71-16.71l16.71-16.71l-16.71-16.71L68.12,733.97z M1018.72,719.14l-0.23,0.23l-33.2,33.2
			l-33.19,33.19l-0.23,0.23l-16.48,16.48l16.71,16.71l16.48-16.48l0.23-0.23l33.19-33.19l33.2-33.2l0.23-0.23l16.49-16.48
			l-16.71-16.71L1018.72,719.14z M818.8,718.54l-0.11,0.11l-16.6,16.6l-16.71,16.71l-16.71,16.71l16.71,16.71l16.71-16.71
			l16.71-16.71l16.6-16.6l0.11-0.11l16.6-16.6l-16.71-16.71L818.8,718.54z M751.96,718.54l-16.71,16.71l-16.71,16.71l16.71,16.71
			l16.71-16.71l16.71-16.71l16.71-16.71l-16.71-16.71L751.96,718.54z M217.91,717.86l16.71,16.71l16.71,16.71l16.71,16.71
			l16.71,16.71l16.71,16.71l16.71-16.71l-16.71-16.71l-16.71-16.71l-16.71-16.71l-16.71-16.71l-16.71-16.71L217.91,717.86z
			 M284.75,717.86l16.71,16.71l16.71-16.71l-16.71-16.71L284.75,717.86z M968.59,702.43l-16.71,16.71l-16.71,16.71l16.71,16.71
			l16.71-16.71l16.71-16.71l16.71-16.71l-16.71-16.71L968.59,702.43z M568.37,701.6l16.71,16.71l16.71,16.71l16.71,16.71
			l16.71,16.71l16.71,16.71l16.71-16.71l-16.71-16.71l-16.71-16.71l-16.71-16.71l-16.71-16.71l-16.71-16.71L568.37,701.6z
			 M635.21,701.6l16.71,16.71l16.71-16.71l-16.71-16.71L635.21,701.6z M434.69,701.6l16.71,16.71l16.71-16.71l-16.71-16.71
			L434.69,701.6z M1051.91,685.95l13.2,13.2v-26.4L1051.91,685.95z M918.46,685.72l-16.71,16.71l-16.6,16.6l-0.11,0.11l-16.6,16.6
			l16.71,16.71l16.6-16.6l0.11-0.11l16.6-16.6l16.71-16.71l16.71-16.71l-16.71-16.71L918.46,685.72z M785.15,685.34l16.71,16.71
			l16.71-16.71l-16.71-16.71L785.15,685.34z M401.5,667.95l-0.23,0.23l-33.2,33.2l-33.19,33.19l-0.23,0.23l-16.48,16.49l16.71,16.71
			l16.48-16.48l0.23-0.23l33.19-33.19l33.2-33.2l0.23-0.23l16.48-16.48l-16.71-16.71L401.5,667.95z M-14.89,684.38l16.17,16.17
			l16.71,16.71l16.71,16.71l16.71-16.71L34.7,700.55l-16.71-16.71L1.28,667.13l-16.17-16.17V684.38z M201.58,667.35l-0.11,0.11
			l-16.6,16.6l-16.71,16.71l-16.71,16.71l16.71,16.71l16.71-16.71l16.71-16.71l16.6-16.6l0.11-0.11l16.6-16.6l-16.71-16.71
			L201.58,667.35z M134.74,667.35l-16.71,16.71l-16.71,16.71l16.71,16.71l16.71-16.71l16.71-16.71l16.71-16.71l-16.71-16.71
			L134.74,667.35z M1018.49,652.53l-16.71,16.71l16.71,16.71l16.71-16.71l16.71-16.71l-16.71-16.71L1018.49,652.53z M751.96,651.7
			l-0.23,0.23l-33.19,33.19l-33.19,33.2l-0.23,0.22l-16.48,16.48l16.71,16.71l16.48-16.48l0.23-0.23l33.2-33.2l33.19-33.19
			l0.22-0.22l16.49-16.48l-16.71-16.71L751.96,651.7z M351.37,651.25l-16.71,16.71l-16.71,16.71l16.71,16.71l16.71-16.71
			l16.71-16.71l16.71-16.71l-16.71-16.71L351.37,651.25z M17.99,650.42l16.71,16.71l16.71-16.71L34.7,633.71L17.99,650.42z
			 M701.83,634.99l-16.71,16.71l-16.71,16.71l16.71,16.71l16.71-16.71l16.71-16.71l16.71-16.71l-16.71-16.71L701.83,634.99z
			 M568.37,634.76l-16.71,16.71l-16.71,16.71l16.71,16.71l16.71-16.71l16.71-16.71l16.71-16.71l-16.71-16.71L568.37,634.76z
			 M434.69,634.76l16.71,16.71l16.71,16.71l16.71,16.71l16.71,16.71l16.71,16.71l16.71-16.71l-16.71-16.71l-16.71-16.71
			l-16.71-16.71l-16.71-16.71l-16.71-16.71L434.69,634.76z M301.24,634.53l-16.71,16.71l-16.6,16.6l-0.11,0.11l-16.6,16.6
			l16.71,16.71l16.6-16.6l0.11-0.11l16.6-16.6l16.71-16.71l16.71-16.71l-16.71-16.71L301.24,634.53z M167.93,634.16l16.71,16.71
			l16.71-16.71l-16.71-16.71L167.93,634.16z M985.07,619.11l-16.71,16.71l-16.71,16.71l16.71,16.71l16.71-16.71l16.71-16.71
			l16.71-16.71l-16.71-16.71L985.07,619.11z M918.46,618.88l-0.11,0.11l-16.6,16.6l-16.71,16.71l16.71,16.71l16.71-16.71l16.6-16.6
			l0.11-0.11l16.6-16.6l-16.71-16.71L918.46,618.88z M851.62,618.88l16.71,16.71l16.71-16.71l-16.71-16.71L851.62,618.88z
			 M785.15,618.5l16.71,16.71l16.71,16.71l16.71,16.71l16.71,16.71l16.71,16.71l16.71-16.71l-16.71-16.71l-16.71-16.71l-16.71-16.71
			l-16.71-16.71l-16.71-16.71L785.15,618.5z M651.7,618.28l-16.71,16.71l-16.6,16.6l-0.11,0.11l-16.6,16.6L618.39,685l16.6-16.6
			l0.11-0.11l16.6-16.6l16.71-16.71l16.71-16.71l-16.71-16.71L651.7,618.28z M518.24,618.05l-16.71,16.71l16.71,16.71l16.71-16.71
			l16.71-16.71l-16.71-16.71L518.24,618.05z M601.57,601.57l16.71,16.71l16.71-16.71l-16.71-16.71L601.57,601.57z M401.27,601.34
			l-16.71,16.71l16.71,16.71l16.71-16.71l16.71-16.71l-16.71-16.71L401.27,601.34z M134.74,600.51l-0.23,0.22l-33.19,33.19
			l-33.19,33.2l-0.23,0.23l-16.48,16.48l16.71,16.71l16.48-16.49l0.23-0.23l33.2-33.19l33.19-33.19l0.23-0.23l16.48-16.48
			l-16.71-16.71L134.74,600.51z M1018.49,585.69l16.71,16.71l16.71,16.71l13.2,13.2v-33.42l-13.2-13.2l-16.71-16.71L1018.49,585.69z
			 M884.81,585.68l16.71,16.71l16.71-16.71l-16.71-16.71L884.81,585.68z M751.73,585.08l-16.71,16.71l16.71,16.71l16.71-16.71
			l16.71-16.71l-16.71-16.71L751.73,585.08z M84.6,583.8L67.9,600.51l-16.71,16.71l16.71,16.71l16.71-16.71l16.71-16.71l16.71-16.71
			l-16.71-16.71L84.6,583.8z M568.15,568.15l-16.71,16.71l16.71,16.71l16.71-16.71l16.71-16.71l-16.71-16.71L568.15,568.15z
			 M367.85,567.92l-16.71,16.71l-16.71,16.71l16.71,16.71l16.71-16.71l16.71-16.71l16.71-16.71l-16.71-16.71L367.85,567.92z
			 M301.24,567.69l-0.11,0.11l-16.6,16.6l-16.71,16.71l16.71,16.71l16.71-16.71l16.6-16.6l0.11-0.11l16.6-16.6l-16.71-16.71
			L301.24,567.69z M234.39,567.69l16.71,16.71l16.71-16.71l-16.71-16.71L234.39,567.69z M167.93,567.32l16.71,16.71l16.71,16.71
			l16.71,16.71l16.71,16.71l16.71,16.71l16.71-16.71l-16.71-16.71l-16.71-16.71l-16.71-16.71l-16.71-16.71l-16.71-16.71
			L167.93,567.32z M34.47,567.09L17.77,583.8l-16.6,16.6l-0.11,0.11l-15.94,15.94v1.31l16.05,16.05l16.6-16.6l0.11-0.11l16.6-16.6
			l16.71-16.71l16.71-16.71l-16.71-16.71L34.47,567.09z M1051.8,552.38l13.31,13.32v-26.63L1051.8,552.38z M851.62,552.04
			l-0.23,0.23l-33.2,33.2l16.71,16.71l33.19-33.19l0.23-0.23l16.48-16.48l-16.71-16.71L851.62,552.04z M718.31,551.66l-16.71,16.71
			l-16.71,16.71l16.71,16.71l16.71-16.71l16.71-16.71l16.71-16.71l-16.71-16.71L718.31,551.66z M-14.89,549.61v1.54l15.94,15.94
			l16.71-16.71L1.06,533.67L-14.89,549.61z M801.48,535.33l-16.71,16.71l16.71,16.71l16.71-16.71l16.71-16.71l-16.71-16.71
			L801.48,535.33z M668.03,535.1l-16.71,16.71l-16.71,16.71l16.71,16.71l16.71-16.71l16.71-16.71l16.71-16.71l-16.71-16.71
			L668.03,535.1z M518.24,551.21l-0.23,0.23l-16.48,16.48l16.71,16.71l16.48-16.48l0.23-0.23l33.2-33.2l-16.71-16.71L518.24,551.21z
			 M401.27,534.5l16.71,16.71l16.71,16.71l16.71,16.71l16.71,16.71l16.71,16.71l16.71-16.71l-16.71-16.71l-16.71-16.71l-16.71-16.71
			l-16.71-16.71l-16.71-16.71L401.27,534.5z M468.11,534.5l16.71,16.71l16.71-16.71l-16.71-16.71L468.11,534.5z M267.59,534.5
			l16.71,16.71l16.71-16.71l-16.71-16.71L267.59,534.5z M134.51,533.9l-16.71,16.71l16.71,16.71l16.71-16.71l16.71-16.71
			l-16.71-16.71L134.51,533.9z M884.81,518.84l16.71,16.71l16.71,16.71l16.71,16.71l16.71,16.71l16.71,16.71l16.71-16.71
			l-16.71-16.71l-16.71-16.71l-16.71-16.71l-16.71-16.71l-16.71-16.71L884.81,518.84z M1018.49,518.85l-16.71,16.71l-16.71,16.71
			l16.71,16.71l16.71-16.71l16.71-16.71l16.71-16.71l-16.71-16.71L1018.49,518.85z M751.36,518.62l16.71,16.71l16.71-16.71
			l-16.71-16.71L751.36,518.62z M617.9,518.39l-16.71,16.71l16.71,16.71l16.71-16.71l16.71-16.71l-16.71-16.71L617.9,518.39z
			 M968.36,502.13l-16.71,16.71l16.71,16.71l16.71-16.71l16.71-16.71l-16.71-16.71L968.36,502.13z M501.3,501.31l16.71,16.71
			l16.71-16.71l-16.71-16.71L501.3,501.31z M234.4,500.85l-0.23,0.23l-33.19,33.2l16.71,16.71l33.2-33.2l0.23-0.23l16.48-16.48
			l-16.71-16.71L234.4,500.85z M101.09,500.48l-16.71,16.71L67.67,533.9l16.71,16.71l16.71-16.71l16.71-16.71l16.71-16.71
			l-16.71-16.71L101.09,500.48z M1051.69,485.65l13.43,13.43v-26.86L1051.69,485.65z M851.39,485.42l-16.71,16.71l16.71,16.71
			l16.71-16.71l16.71-16.71l-16.71-16.71L851.39,485.42z M184.26,484.14l-16.71,16.71l16.71,16.71l16.71-16.71l16.71-16.71
			l-16.71-16.71L184.26,484.14z M50.81,483.92L34.1,500.63l-16.71,16.71l16.71,16.71l16.71-16.71l16.71-16.71l16.71-16.71
			l-16.71-16.71L50.81,483.92z M467.89,467.89l-16.6,16.6l-0.11,0.11l-16.6,16.6l16.71,16.71l16.6-16.6l0.11-0.11l16.6-16.6
			l16.71-16.71l-16.71-16.71L467.89,467.89z M401.27,467.66l-16.71,16.71l-16.71,16.71l16.71,16.71l16.71-16.71l16.71-16.71
			l16.71-16.71l-16.71-16.71L401.27,467.66z M267.59,467.66l16.71,16.71l16.71,16.71l16.71,16.71l16.71,16.71l16.71,16.71
			l16.71-16.71l-16.71-16.71l-16.71-16.71l-16.71-16.71l-16.71-16.71l-16.71-16.71L267.59,467.66z M134.13,467.43l16.71,16.71
			l16.71-16.71l-16.71-16.71L134.13,467.43z M0.68,467.21l-15.56,15.57v2.29l15.56,15.56l16.71-16.71l16.71-16.71L17.39,450.5
			L0.68,467.21z M817.97,452l-16.71,16.71l-16.71,16.71l16.71,16.71l16.71-16.71l16.71-16.71L851.39,452l-16.71-16.71L817.97,452z
			 M751.36,451.78l-0.11,0.11l-16.6,16.6l-16.71,16.71l-16.71,16.71l16.71,16.71l16.71-16.71l16.71-16.71l16.6-16.6l0.11-0.11
			l16.6-16.6l-16.71-16.71L751.36,451.78z M684.51,451.78l-16.71,16.71l-16.71,16.71l16.71,16.71l16.71-16.71l16.71-16.71
			l16.71-16.71l-16.71-16.71L684.51,451.78z M351.14,450.95l-16.71,16.71l16.71,16.71l16.71-16.71l16.71-16.71l-16.71-16.71
			L351.14,450.95z M1034.98,435.52l-16.71,16.71l-16.71,16.71l16.71,16.71l16.71-16.71l16.71-16.71l13.43-13.43v-6.56l-13.43-13.43
			L1034.98,435.52z M500.93,434.84l16.71,16.71l16.71,16.71l16.71,16.71l16.71,16.71l16.71,16.71l16.71-16.71l-16.71-16.71
			l-16.71-16.71l-16.71-16.71l-16.71-16.71l-16.71-16.71L500.93,434.84z M567.77,434.84l16.71,16.71l16.71-16.71l-16.71-16.71
			L567.77,434.84z M234.17,434.24l-16.71,16.71l16.71,16.71l16.71-16.71l16.71-16.71l-16.71-16.71L234.17,434.24z M918.23,418.58
			l16.71,16.71l16.71-16.71l-16.71-16.71L918.23,418.58z M851.39,418.58l16.71,16.71L884.81,452l16.71,16.71l16.71,16.71
			l16.71,16.71l16.71-16.71l-16.71-16.71L918.23,452l-16.71-16.71l-16.71-16.71l-16.71-16.71L851.39,418.58z M717.71,418.58
			l16.71,16.71l16.71-16.71l-16.71-16.71L717.71,418.58z M200.75,400.82l-16.71,16.71l-16.71,16.71l16.71,16.71l16.71-16.71
			l16.71-16.71l16.71-16.71l-16.71-16.71L200.75,400.82z M134.13,400.59l-0.11,0.11l-16.6,16.6l-16.71,16.71L84,450.72l16.71,16.71
			l16.71-16.71l16.71-16.71l16.6-16.6l0.11-0.11l16.6-16.6l-16.71-16.71L134.13,400.59z M67.29,400.59L50.58,417.3l-16.71,16.71
			l16.71,16.71l16.71-16.71L84,417.3l16.71-16.71L84,383.88L67.29,400.59z M684.52,384.94l-0.23,0.23l-33.2,33.19l-33.19,33.19
			l-0.23,0.23l-16.48,16.48l16.71,16.71l16.48-16.48l0.23-0.22l33.19-33.2l33.2-33.19l0.23-0.23l16.48-16.48L701,368.45
			L684.52,384.94z M484.59,384.33l-0.11,0.11l-16.6,16.6l-16.71,16.71l-16.71,16.71l16.71,16.71l16.71-16.71l16.71-16.71l16.6-16.6
			l0.11-0.11l16.6-16.6l-16.71-16.71L484.59,384.33z M417.75,384.33l-16.71,16.71l-16.71,16.71l16.71,16.71l16.71-16.71l16.71-16.71
			l16.71-16.71l-16.71-16.71L417.75,384.33z M1034.98,368.68l-0.23,0.23l-33.19,33.19l-33.2,33.2l-0.22,0.23L951.65,452l16.71,16.71
			l16.49-16.48l0.23-0.23l33.19-33.2l33.19-33.19l0.23-0.23l13.43-13.43v-6.11l-13.65-13.66L1034.98,368.68z M634.38,368.23
			l-16.71,16.71l-16.71,16.71l16.71,16.71l16.71-16.71l16.71-16.71l16.71-16.71l-16.71-16.71L634.38,368.23z M234.17,367.4
			l16.71,16.71l16.71,16.71l16.71,16.71l16.71,16.71l16.71,16.71l16.71-16.71l-16.71-16.71l-16.71-16.71l-16.71-16.71l-16.71-16.71
			l-16.71-16.71L234.17,367.4z M301.01,367.4l16.71,16.71l16.71-16.71l-16.71-16.71L301.01,367.4z M100.49,367.4l16.71,16.71
			l16.71-16.71l-16.71-16.71L100.49,367.4z M984.85,351.97l-16.71,16.71l-16.71,16.71l16.71,16.71l16.71-16.71l16.71-16.71
			l16.71-16.71l-16.71-16.71L984.85,351.97z M851.39,351.74l-16.71,16.71l-16.71,16.71l16.71,16.71l16.71-16.71l16.71-16.71
			l16.71-16.71l-16.71-16.71L851.39,351.74z M717.71,351.74l16.71,16.71l16.71,16.71l16.71,16.71l16.71,16.71l16.71,16.71
			l16.71-16.71l-16.71-16.71l-16.71-16.71l-16.71-16.71l-16.71-16.71l-16.71-16.71L717.71,351.74z M584.25,351.52l-16.71,16.71
			l-16.6,16.6l-0.11,0.11l-16.6,16.6l16.71,16.71l16.6-16.6l0.11-0.11l16.6-16.6l16.71-16.71l16.71-16.71l-16.71-16.71
			L584.25,351.52z M450.95,351.14l16.71,16.71l16.71-16.71l-16.71-16.71L450.95,351.14z M934.72,335.26l-16.71,16.71l-16.6,16.6
			l-0.11,0.11l-16.6,16.6l16.71,16.71l16.6-16.6l0.11-0.11l16.6-16.6l16.71-16.71l16.71-16.71l-16.71-16.71L934.72,335.26z
			 M801.26,335.03l-16.71,16.71l16.71,16.71l16.71-16.71l16.71-16.71l-16.71-16.71L801.26,335.03z M67.29,333.75l-0.23,0.23
			l-33.19,33.2L0.68,400.37l-0.23,0.23l-15.34,15.34v2.29l15.56,15.57l16.48-16.48l0.23-0.23l33.19-33.19l33.19-33.2l0.23-0.23
			l16.49-16.48l-16.71-16.71L67.29,333.75z M884.59,318.55l16.71,16.71l16.71-16.71l-16.71-16.71L884.59,318.55z M684.29,318.32
			l-16.71,16.71l16.71,16.71L701,335.03l16.71-16.71L701,301.61L684.29,318.32z M417.75,317.49l-0.23,0.22l-33.2,33.2l-33.19,33.19
			l-0.23,0.23l-16.48,16.48l16.71,16.71l16.48-16.48l0.23-0.23l33.2-33.2l33.19-33.19l0.23-0.23l16.49-16.48l-16.71-16.71
			L417.75,317.49z M17.16,317.04L0.45,333.75l-15.34,15.34v2.74l15.34,15.34l16.71-16.71l16.71-16.71l16.71-16.71l-16.71-16.71
			L17.16,317.04z M1034.75,302.06l-16.71,16.71l16.71,16.71l16.71-16.71l13.65-13.65v-6.11l-13.65-13.65L1034.75,302.06z
			 M-14.89,315.67l15.34-15.34l-15.34-15.34V315.67z M367.62,300.78l-16.71,16.71L334.2,334.2l16.71,16.71l16.71-16.71l16.71-16.71
			l16.71-16.71l-16.71-16.71L367.62,300.78z M234.17,300.56l-16.71,16.71l-16.71,16.71l16.71,16.71l16.71-16.71l16.71-16.71
			l16.71-16.71l-16.71-16.71L234.17,300.56z M100.49,300.56l16.71,16.71l16.71,16.71l16.71,16.71l16.71,16.71l16.71,16.71
			l16.71-16.71l-16.71-16.71l-16.71-16.71l-16.71-16.71l-16.71-16.71l-16.71-16.71L100.49,300.56z M851.16,285.13l-16.71,16.71
			l16.71,16.71l16.71-16.71l16.71-16.71l-16.71-16.71L851.16,285.13z M650.87,284.9l-16.71,16.71l-16.71,16.71l16.71,16.71
			l16.71-16.71l16.71-16.71l16.71-16.71l-16.71-16.71L650.87,284.9z M584.25,284.68l-0.11,0.11l-16.6,16.6l-16.71,16.71l16.71,16.71
			l16.71-16.71l16.6-16.6l0.11-0.11l16.6-16.6l-16.71-16.71L584.25,284.68z M517.41,284.68l16.71,16.71l16.71-16.71l-16.71-16.71
			L517.41,284.68z M450.95,284.3l16.71,16.71l16.71,16.71l16.71,16.71l16.71,16.71l16.71,16.71l16.71-16.71l-16.71-16.71
			l-16.71-16.71l-16.71-16.71l-16.71-16.71l-16.71-16.71L450.95,284.3z M317.49,284.07l-16.71,16.71l-16.6,16.6l-0.11,0.11
			l-16.6,16.6l16.71,16.71l16.6-16.6l0.11-0.11l16.6-16.6l16.71-16.71l16.71-16.71l-16.71-16.71L317.49,284.07z M184.04,283.85
			l-16.71,16.71l16.71,16.71l16.71-16.71l16.71-16.71l-16.71-16.71L184.04,283.85z M1001.33,268.64l-16.71,16.71l-16.71,16.71
			l16.71,16.71l16.71-16.71l16.71-16.71l16.71-16.71l-16.71-16.71L1001.33,268.64z M267.36,267.36l16.71,16.71l16.71-16.71
			l-16.71-16.71L267.36,267.36z M67.07,267.14l-16.71,16.71l16.71,16.71l16.71-16.71l16.71-16.71l-16.71-16.71L67.07,267.14z
			 M951.05,252.09l-16.71,16.71l-16.71,16.71l16.71,16.71l16.71-16.71l16.71-16.71l16.71-16.71l-16.71-16.71L951.05,252.09z
			 M801.26,268.19l-0.23,0.23l-16.48,16.48l16.71,16.71l16.48-16.48l0.23-0.23l33.2-33.2L834.45,235L801.26,268.19z M684.29,251.48
			L701,268.19l16.71,16.71l16.71,16.71l16.71,16.71l16.71,16.71l16.71-16.71l-16.71-16.71l-16.71-16.71l-16.71-16.71l-16.71-16.71
			L701,234.77L684.29,251.48z M751.13,251.48l16.71,16.71l16.71-16.71l-16.71-16.71L751.13,251.48z M550.61,251.48l16.71,16.71
			l16.71-16.71l-16.71-16.71L550.61,251.48z M417.53,250.88l-16.71,16.71l16.71,16.71l16.71-16.71l16.71-16.71l-16.71-16.71
			L417.53,250.88z M1034.37,235.6l16.71,16.71l14.03-14.03v-5.36l-14.03-14.03L1034.37,235.6z M900.92,235.37l-16.71,16.71
			l16.71,16.71l16.71-16.71l16.71-16.71l-16.71-16.71L900.92,235.37z M-14.89,248.83L0.34,233.6l-15.23-15.23V248.83z
			 M233.94,233.94l-16.71,16.71l16.71,16.71l16.71-16.71l16.71-16.71l-16.71-16.71L233.94,233.94z M33.65,233.72l-16.71,16.71
			L0.23,267.14l16.71,16.71l16.71-16.71l16.71-16.71l16.71-16.71l-16.71-16.71L33.65,233.72z M784.32,218.29L801.03,235l16.71-16.71
			l-16.71-16.71L784.32,218.29z M517.41,217.83l-0.23,0.23l-33.2,33.2l16.71,16.71l33.2-33.2l0.23-0.22l16.48-16.49l-16.71-16.71
			L517.41,217.83z M384.11,217.46l-16.71,16.71l-16.71,16.71l16.71,16.71l16.71-16.71l16.71-16.71l16.71-16.71l-16.71-16.71
			L384.11,217.46z M467.28,201.13l-16.71,16.71l16.71,16.71l16.71-16.71l16.71-16.71l-16.71-16.71L467.28,201.13z M333.83,200.9
			l-16.71,16.71l-16.71,16.71l16.71,16.71l16.71-16.71l16.71-16.71l16.71-16.71l-16.71-16.71L333.83,200.9z M184.04,217.01
			l-0.23,0.23l-16.48,16.49l16.71,16.71l16.48-16.48l0.23-0.22l33.2-33.2l-16.71-16.71L184.04,217.01z M67.07,200.3l16.71,16.71
			l16.71,16.71l16.71,16.71l16.71,16.71l16.71,16.71l16.71-16.71l-16.71-16.71l-16.71-16.71l-16.71-16.71l-16.71-16.71l-16.71-16.71
			L67.07,200.3z M133.91,200.3l16.71,16.71l16.71-16.71l-16.71-16.71L133.91,200.3z M750.9,184.87l-16.6,16.6l-0.11,0.11l-16.6,16.6
			l16.71,16.71l16.6-16.6l0.11-0.11l16.6-16.6l16.71-16.71l-16.71-16.71L750.9,184.87z M684.29,184.64l-16.71,16.71l-16.71,16.71
			l16.71,16.71l16.71-16.71L701,201.35l16.71-16.71L701,167.93L684.29,184.64z M550.61,184.64l16.71,16.71l16.71,16.71l16.71,16.71
			l16.71,16.71l16.71,16.71l16.71-16.71l-16.71-16.71l-16.71-16.71l-16.71-16.71l-16.71-16.71l-16.71-16.71L550.61,184.64z
			 M417.15,184.42l16.71,16.71l16.71-16.71l-16.71-16.71L417.15,184.42z M283.7,184.19l-16.71,16.71l16.71,16.71l16.71-16.71
			l16.71-16.71l-16.71-16.71L283.7,184.19z M1034.37,168.76l-0.11,0.11l-16.6,16.6l-16.71,16.71l-16.71,16.71l16.71,16.71
			l16.71-16.71l16.71-16.71l16.6-16.6l0.11-0.11l14.03-14.03v-5.13l-14.14-14.14L1034.37,168.76z M967.53,168.76l-16.71,16.71
			l-16.71,16.71l16.71,16.71l16.71-16.71l16.71-16.71l16.71-16.71l-16.71-16.71L967.53,168.76z M-14.89,185.18L0.23,200.3
			l16.71,16.71l16.71-16.71l-16.71-16.71L0.23,166.88l-15.11-15.11V185.18z M634.16,167.93l-16.71,16.71l16.71,16.71l16.71-16.71
			l16.71-16.71l-16.71-16.71L634.16,167.93z M167.1,167.1l16.71,16.71l16.71-16.71l-16.71-16.71L167.1,167.1z M783.95,151.82
			l16.71,16.71l16.71,16.71l16.71,16.71l16.71,16.71l16.71,16.71l16.71-16.71l-16.71-16.71l-16.71-16.71l-16.71-16.71l-16.71-16.71
			l-16.71-16.71L783.95,151.82z M850.79,151.82l16.71,16.71l16.71-16.71l-16.71-16.71L850.79,151.82z M517.19,151.22l-16.71,16.71
			l16.71,16.71l16.71-16.71l16.71-16.71l-16.71-16.71L517.19,151.22z M1000.73,135.56l16.71,16.71l16.71-16.71l-16.71-16.71
			L1000.73,135.56z M133.68,133.68l-16.6,16.6l-0.11,0.11l-16.6,16.6l16.71,16.71l16.6-16.6l0.11-0.11l16.6-16.6l16.71-16.71
			l-16.71-16.71L133.68,133.68z M67.06,133.46l-16.71,16.71l-16.71,16.71l16.71,16.71l16.71-16.71l16.71-16.71l16.71-16.71
			l-16.71-16.71L67.06,133.46z M483.77,117.8l-16.71,16.71l-16.71,16.71l16.71,16.71l16.71-16.71l16.71-16.71l16.71-16.71
			l-16.71-16.71L483.77,117.8z M417.15,117.57l-0.11,0.11l-16.6,16.6l-16.71,16.71l-16.71,16.71l16.71,16.71l16.71-16.71
			l16.71-16.71l16.6-16.6l0.11-0.11l16.6-16.6l-16.71-16.71L417.15,117.57z M350.31,117.57l-16.71,16.71l-16.71,16.71l16.71,16.71
			l16.71-16.71l16.71-16.71l16.71-16.71l-16.71-16.71L350.31,117.57z M16.93,116.74L0.23,133.46l16.71,16.71l16.71-16.71
			l16.71-16.71l-16.71-16.71L16.93,116.74z M967.53,101.92l-0.23,0.23l-33.2,33.19l-33.19,33.19l-0.23,0.23l-16.48,16.48
			l16.71,16.71l16.48-16.49l0.23-0.23l33.19-33.19l33.2-33.2l0.23-0.23l16.48-16.48l-16.71-16.71L967.53,101.92z M-14.89,115.15
			l15.11-15.11l-15.11-15.11V115.15z M767.61,101.32l-0.11,0.11l-16.6,16.6l-16.71,16.71l-16.71,16.71l16.71,16.71l16.71-16.71
			l16.71-16.71l16.6-16.6l0.11-0.11l16.6-16.6l-16.71-16.71L767.61,101.32z M700.77,101.32l-16.71,16.71l-16.71,16.71l16.71,16.71
			l16.71-16.71l16.71-16.71l16.71-16.71l-16.71-16.71L700.77,101.32z M166.72,100.64l16.71,16.71l16.71,16.71l16.71,16.71
			l16.71,16.71l16.71,16.71l16.71-16.71l-16.71-16.71l-16.71-16.71l-16.71-16.71l-16.71-16.71l-16.71-16.71L166.72,100.64z
			 M233.57,100.64l16.71,16.71l16.71-16.71l-16.71-16.71L233.57,100.64z M917.4,85.21l-16.71,16.71l-16.71,16.71l16.71,16.71
			l16.71-16.71l16.71-16.71l16.71-16.71L934.11,68.5L917.4,85.21z M584.03,84.38l16.71,16.71l16.71-16.71l-16.71-16.71L584.03,84.38
			z M383.51,84.38l16.71,16.71l16.71-16.71l-16.71-16.71L383.51,84.38z M517.19,84.38l16.71,16.71l16.71,16.71l16.71,16.71
			l16.71,16.71l16.71,16.71l16.71-16.71l-16.71-16.71l-16.71-16.71l-16.71-16.71l-16.71-16.71L533.9,67.67L517.19,84.38z
			 M1000.73,68.72l16.71,16.71l16.71,16.71l16.71,16.71l14.26,14.26V99.69l-14.26-14.26l-16.71-16.71l-16.71-16.71L1000.73,68.72z
			 M867.27,68.5l-16.71,16.71l-16.6,16.6l-0.11,0.11l-16.6,16.6l16.71,16.71l16.6-16.6l0.11-0.11l16.6-16.6l16.71-16.71l16.71-16.71
			l-16.71-16.71L867.27,68.5z M733.97,68.12l16.71,16.71l16.71-16.71l-16.71-16.71L733.97,68.12z M350.31,50.73l-0.23,0.23
			l-33.2,33.2l-33.19,33.19l-0.23,0.23l-16.48,16.48l16.71,16.71l16.48-16.48l0.23-0.23l33.19-33.19l33.2-33.2l0.23-0.23
			l16.48-16.48L366.8,34.25L350.31,50.73z M150.39,50.13l-0.11,0.11l-16.6,16.6l-16.71,16.71l-16.71,16.71l16.71,16.71l16.71-16.71
			l16.71-16.71l16.6-16.6l0.11-0.11l16.6-16.6l-16.71-16.71L150.39,50.13z M83.55,50.13L66.84,66.84L50.13,83.55l16.71,16.71
			l16.71-16.71l16.71-16.71l16.71-16.71l-16.71-16.71L83.55,50.13z M967.31,35.3L950.6,52.01l16.71,16.71l16.71-16.71l16.71-16.71
			l-16.71-16.71L967.31,35.3z M-14.89,48.31L0.23,33.2l-15.11-15.11V48.31z M700.77,34.48l-0.22,0.23L667.35,67.9l-33.2,33.2
			l-0.22,0.23l-16.48,16.48l16.71,16.71l16.48-16.48l0.23-0.23l33.2-33.2l33.19-33.19l0.23-0.23l16.48-16.49l-16.71-16.71
			L700.77,34.48z M300.18,34.02l-16.71,16.71l-16.71,16.71l16.71,16.71l16.71-16.71l16.71-16.71l16.71-16.71l-16.71-16.71
			L300.18,34.02z M650.64,17.77l-16.71,16.71l-16.71,16.71l16.71,16.71l16.71-16.71l16.71-16.71l16.71-16.71L667.35,1.06
			L650.64,17.77z M517.19,17.54l-16.71,16.71l-16.71,16.71l16.71,16.71l16.71-16.71l16.71-16.71l16.71-16.71L533.9,0.83
			L517.19,17.54z M383.51,17.54l16.71,16.71l16.71,16.71l16.71,16.71l16.71,16.71l16.71,16.71l16.71-16.71l-16.71-16.71
			l-16.71-16.71l-16.71-16.71l-16.71-16.71L400.22,0.83L383.51,17.54z M250.05,17.31l-16.71,16.71l-16.6,16.6l-0.11,0.11l-16.6,16.6
			l16.71,16.71l16.6-16.6l0.11-0.11l16.6-16.6l16.71-16.71l16.71-16.71L266.76,0.6L250.05,17.31z M116.74,16.94l16.71,16.71
			l16.71-16.71L133.46,0.23L116.74,16.94z M6.36-6.36L0,0l16.71,16.71L33.42,0l6.36-6.36H6.36z M73.2-6.36L50.13,16.71l-33.2,33.2
			l-0.23,0.23L0.23,66.61l16.71,16.71l16.48-16.48l0.23-0.23l33.19-33.19l33.19-33.19L100.26,0l6.36-6.36H73.2z M160.29-6.36
			l6.59,6.59l16.71,16.71l16.71,16.71l16.71-16.71L200.3,0.23l-6.59-6.59H160.29z M226.37-6.36l6.97,6.96l6.97-6.96H226.37z
			 M292.76-6.36l7.19,7.19l7.19-7.19H292.76z M340.57-6.36l-7.19,7.19l16.71,16.71L366.8,0.83l7.19-7.19H340.57z M426.44-6.36
			l7.19,7.19l7.19-7.19H426.44z M474.25-6.36l-7.19,7.19l-16.71,16.71l16.71,16.71l16.71-16.71l16.71-16.71l-7.19-7.19H474.25z
			 M559.67-6.36l7.42,7.42l7.42-7.42H559.67z M607.93-6.36l-7.42,7.42L583.8,17.76l-16.6,16.6l-0.11,0.11l-16.6,16.6l16.71,16.71
			l16.6-16.6l0.11-0.11l16.6-16.6l16.71-16.71l16.71-16.71l-7.42-7.42H607.93z M692.9-6.36l7.65,7.65l7.64-7.65H692.9z M741.61-6.36
			l-7.64,7.64l16.71,16.71l16.71,16.71l16.71,16.71l16.71,16.71l16.71,16.71l16.71-16.71l-16.71-16.71L800.81,34.7L784.1,17.99
			L767.39,1.28l-7.64-7.64H741.61z M808.45-6.36l-8.02,8.02l16.71,16.71l16.71-16.71l-8.02-8.02H808.45z M875.29-6.36l-8.02,8.02
			l-0.11,0.11l-16.6,16.6l-16.71,16.71l16.71,16.71l16.71-16.71l16.6-16.6l0.11-0.11l16.6-16.6l-8.13-8.13H875.29z M942.13-6.36
			l-8.25,8.25l-16.71,16.71L900.47,35.3l16.71,16.71l16.71-16.71l16.71-16.71l16.71-16.71l-8.25-8.25H942.13z M992.48-6.36
			l8.25,8.25l16.71,16.71l16.71,16.71l16.71,16.71l14.26-14.26v-4.91l-14.26-14.26l-16.71-16.71l-8.25-8.25H992.48z"/>
	</defs>
	<clipPath id="SVGID_10_">
		<use xlink:href="#SVGID_748_"  style="overflow:visible;"/>
	</clipPath>
	<defs>
		<filter id="Adobe_OpacityMaskFilter" filterUnits="userSpaceOnUse" x="-14.89" y="-6.36" width="1080" height="970.44">
			<feColorMatrix  type="matrix" values="1 0 0 0 0  0 1 0 0 0  0 0 1 0 0  0 0 0 1 0"/>
		</filter>
	</defs>
	<mask maskUnits="userSpaceOnUse" x="-14.89" y="-6.36" width="1080" height="970.44" id="SVGID_12_">
		<g class="st56">
			
				<linearGradient id="SVGID_14_" gradientUnits="userSpaceOnUse" x1="6712.2041" y1="-1533.9036" x2="6713.2041" y2="-1533.9036" gradientTransform="matrix(0 1114.3483 1114.3483 0 1709828 -7479882)">
				<stop  offset="0" style="stop-color:#000000"/>
				<stop  offset="0.1228" style="stop-color:#040404"/>
				<stop  offset="0.248" style="stop-color:#101010"/>
				<stop  offset="0.3743" style="stop-color:#252525"/>
				<stop  offset="0.5014" style="stop-color:#414141"/>
				<stop  offset="0.6293" style="stop-color:#666666"/>
				<stop  offset="0.7578" style="stop-color:#949494"/>
				<stop  offset="0.8842" style="stop-color:#C8C8C8"/>
				<stop  offset="1" style="stop-color:#FFFFFF"/>
			</linearGradient>
			<rect x="-14.89" y="-6.36" style="clip-path:url(#SVGID_10_);fill:url(#SVGID_14_);" width="1080" height="970.44"/>
		</g>
	</mask>
	
		<linearGradient id="SVGID_16_" gradientUnits="userSpaceOnUse" x1="6712.2041" y1="-1533.9036" x2="6713.2041" y2="-1533.9036" gradientTransform="matrix(0 1114.3484 1114.3484 0 1709828.125 -7479883)">
		<stop  offset="0" style="stop-color:#FFFFFF"/>
		<stop  offset="0.1679" style="stop-color:#F7FBF9"/>
		<stop  offset="0.339" style="stop-color:#E8F2EF"/>
		<stop  offset="0.5116" style="stop-color:#D0E5E0"/>
		<stop  offset="0.6853" style="stop-color:#B1D5CE"/>
		<stop  offset="0.8582" style="stop-color:#8CC3B8"/>
		<stop  offset="1" style="stop-color:#69B4A5"/>
	</linearGradient>
	
		<rect x="-14.89" y="-6.36" style="clip-path:url(#SVGID_10_);mask:url(#SVGID_12_);fill:url(#SVGID_16_);" width="1080" height="970.44"/>
</g>
<g>
	<defs>
		<rect id="SVGID_775_" x="1932.08" y="-1174.71" width="1080" height="1080"/>
	</defs>
	<clipPath id="SVGID_18_">
		<use xlink:href="#SVGID_775_"  style="overflow:visible;"/>
	</clipPath>
	<g style="opacity:0.2;clip-path:url(#SVGID_18_);">
		<g>
			<defs>
				<rect id="SVGID_784_" x="925.79" y="-3645.92" width="5609.18" height="5609.18"/>
			</defs>
			<clipPath id="SVGID_20_">
				<use xlink:href="#SVGID_784_"  style="overflow:visible;"/>
			</clipPath>
		</g>
	</g>
</g>
</svg>
